<?xml version="1.0" encoding="UTF-8" standalone="no"?>
<!-- Created with Inkscape (http://www.inkscape.org/) -->

<svg
   xmlns:dc="http://purl.org/dc/elements/1.1/"
   xmlns:cc="http://creativecommons.org/ns#"
   xmlns:rdf="http://www.w3.org/1999/02/22-rdf-syntax-ns#"
   xmlns:svg="http://www.w3.org/2000/svg"
   xmlns="http://www.w3.org/2000/svg"
   xmlns:xlink="http://www.w3.org/1999/xlink"
   xmlns:sodipodi="http://sodipodi.sourceforge.net/DTD/sodipodi-0.dtd"
   xmlns:inkscape="http://www.inkscape.org/namespaces/inkscape"
   version="1.1"
   id="svg869"
   xml:space="preserve"
   width="576"
   height="533.50281"
   viewBox="0 0 576 533.50281"
   sodipodi:docname="landing-mobile.svg"
   inkscape:version="0.92.4 (5da689c313, 2019-01-14)"><metadata
     id="metadata875"><rdf:RDF><cc:Work
         rdf:about=""><dc:format>image/svg+xml</dc:format><dc:type
           rdf:resource="http://purl.org/dc/dcmitype/StillImage" /><dc:title></dc:title></cc:Work></rdf:RDF></metadata><defs
     id="defs873"><linearGradient
       x1="0"
       y1="0"
       x2="1"
       y2="0"
       gradientUnits="userSpaceOnUse"
       gradientTransform="matrix(-1009.33,1968.01,1968.01,1009.33,3085.76,87.4399)"
       spreadMethod="pad"
       id="linearGradient2253"><stop
         id="stop2251"
         offset="0"
         style="stop-opacity:1;stop-color:#b35ab4" /><stop
         id="stop2249"
         offset="1"
         style="stop-opacity:1;stop-color:#4664b8" /></linearGradient><clipPath
       clipPathUnits="userSpaceOnUse"
       id="clipPath889"><path
         d="m 6716.14,294.789 v 0 c -124.36,16.75 -217.6,25.973 -279.72,32.652 -62.17,6.141 -93.24,9.2 -93.24,9.2 0,0 -23.34,2.238 -58.25,5.601 -34.98,3.098 -81.59,7.199 -128.21,11.309 -93.23,7.48 -186.47,14.969 -186.47,14.969 0,0 -93.24,6.589 -186.47,13.171 -93.23,5.758 -186.49,11.539 -186.49,11.539 0,0 -23.34,1.411 -58.25,3.481 -34.98,1.82 -81.59,4.25 -128.21,6.68 -93.24,5.179 -186.47,8.918 -186.47,8.918 0,0 -93.24,3.941 -186.47,7.902 -93.23,3.109 -186.46,6.23 -186.46,6.23 0,0 -93.25,3.348 -186.48,5.551 -93.23,2.149 -186.48,4.297 -186.48,4.297 0,0 -93.24,1.59 -186.47,3.203 -93.23,1.078 -186.47,2.129 -186.47,2.129 0,0 -93.24,0.578 -186.47,1.141 -93.23,0.117 -186.46,0.23 -186.46,0.23 0,0 -93.24,-0.34 -186.48,-0.691 -93.25,-0.813 -186.48,-1.621 -186.48,-1.621 0,0 -93.23,-1.27 -186.47,-2.551 -93.23,-1.231 -186.47,-3.719 -186.47,-3.738 0,0 -93.23,-2.129 -186.47,-4.309 -93.23,-2.871 -186.46,-5.75 -186.46,-5.75 0,0 -23.34,-0.762 -58.29,-1.891 -34.95,-1.14 -81.57,-2.492 -128.19,-4.589 -93.25,-3.852 -186.48,-7.692 -186.48,-7.692 0,0 -23.34,-0.762 -58.28,-2.629 -34.95,-1.761 -81.56,-4.109 -128.19,-6.441 -93.23,-4.371 -186.47,-10.16 -186.47,-10.16 0,0 -23.33,-1.379 -58.28,-3.461 -34.95,-2.098 -81.57,-4.668 -128.18,-8.028 -46.63,-3.152 -93.24,-6.332 -128.22,-8.691 -34.98,-2.258 -58.25,-4.262 -58.25,-4.262 0,0 -23.36,-1.769 -58.3,-4.437 -34.93,-2.801 -81.56,-6.012 -128.18,-10.153 -46.61,-4.019 -93.24,-8.007 -128.21,-11.019 -34.98,-3.27 -58.27,-5.457 -58.27,-5.457 0,0 -31.07,-3 -93.23,-8.961 -62.168,-6.441 -155.398,-15.512 -279.695,-31.672 v 0 c 0,15.109 0,22.68 0,22.68 v 22.703 22.668 22.68 22.699 22.672 45.379 22.691 13.148 H 2018.66 v 0 h 287.54 v 0 h 4409.94 v -217.32"
         id="path887"
         inkscape:connector-curvature="0" /></clipPath><clipPath
       clipPathUnits="userSpaceOnUse"
       id="clipPath907"><path
         d="M 6646.88,1212.84 H 3069.47 c -15.5,0 -28.19,12.69 -28.19,28.19 0,15.49 12.69,28.17 28.19,28.17 h 712.11 c 15.27,-8.61 32.9,-13.52 51.68,-13.52 h 1769.93 c 18.78,0 36.4,4.91 51.67,13.52 h 992.02 c 15.5,0 28.17,-12.68 28.17,-28.17 0,-15.5 -12.67,-28.19 -28.17,-28.19"
         id="path905"
         inkscape:connector-curvature="0" /></clipPath><clipPath
       id="clipPath55"
       clipPathUnits="userSpaceOnUse"><path
         inkscape:connector-curvature="0"
         id="path53"
         d="m 1233.21,1329.3 -27.47,-71.09 h 55.27 z m 60.76,-156.41 -15.19,39.42 h -91.14 l -15.19,-39.42 h -57.2 l 90.49,216.53 h 54.62 l 90.49,-216.53 z" /></clipPath><linearGradient
       id="linearGradient61"
       spreadMethod="pad"
       gradientTransform="matrix(-1009.33,1968.01,1968.01,1009.33,3085.76,87.4399)"
       gradientUnits="userSpaceOnUse"
       y2="0"
       x2="1"
       y1="0"
       x1="0"><stop
         id="stop57"
         offset="0"
         style="stop-opacity:1;stop-color:#4664b8" /><stop
         id="stop59"
         offset="1"
         style="stop-opacity:1;stop-color:#b35ab4" /></linearGradient><clipPath
       id="clipPath71"
       clipPathUnits="userSpaceOnUse"><path
         inkscape:connector-curvature="0"
         id="path69"
         d="m 1472.73,1215.87 c 17.12,0 26.5,9.37 26.5,24.24 0,14.22 -10.35,23.27 -25.54,23.27 h -50.73 v -47.51 z m -49.77,84.03 h 46.53 c 15.84,0 26.18,9.7 26.18,24.24 0,13.57 -10.66,22.29 -24.24,22.29 h -48.47 z m 88.87,-16.49 c 20.04,-1.61 41.69,-17.12 41.69,-49.76 0,-35.88 -24.24,-60.76 -71.42,-60.76 h -112.47 v 216.53 h 112.14 c 39.75,0 65.61,-23.59 65.61,-59.14 0,-29.74 -21.01,-43.95 -35.55,-45.58 z" /></clipPath><clipPath
       id="clipPath87"
       clipPathUnits="userSpaceOnUse"><path
         inkscape:connector-curvature="0"
         id="path85"
         d="m 1758.12,1331.57 -52.35,-10.66 c -3.88,20.36 -20.69,30.38 -37.81,30.38 -17.78,0 -29.09,-9.7 -29.09,-21.99 0,-8.72 3.88,-15.18 17.45,-18.09 l 44.92,-10.02 c 37.49,-8.4 59.47,-28.76 59.47,-63.02 0,-46.21 -41.05,-70.13 -89.2,-70.13 -48.8,0 -88.88,23.27 -94.69,65.61 l 54.94,10.66 c 5.49,-22.3 21.01,-32 42.66,-32 20.03,0 31.99,9.05 31.99,22.31 0,9.69 -4.52,15.83 -20.04,19.06 l -45.24,9.7 c -31.03,7.11 -58.17,23.27 -58.17,62.69 0,42.02 34.9,68.19 85.64,68.19 47.19,0 81.44,-23.27 89.52,-62.69 z" /></clipPath><clipPath
       id="clipPath103"
       clipPathUnits="userSpaceOnUse"><path
         inkscape:connector-curvature="0"
         id="path101"
         d="m 1898.09,1342.88 v -169.99 h -53 v 169.99 h -70.13 v 46.54 h 193.26 v -46.54 z" /></clipPath><clipPath
       id="clipPath119"
       clipPathUnits="userSpaceOnUse"><path
         inkscape:connector-curvature="0"
         id="path117"
         d="m 2097.2,1291.81 c 19.07,0 31.35,10.35 31.35,26.18 0,15.52 -12.28,25.86 -31.35,25.86 h -50.42 v -52.04 z m 30.38,-118.92 -65.28,74.33 h -15.52 v -74.33 h -53.32 v 216.53 h 109.55 c 46.87,0 77.89,-28.44 77.89,-70.78 0,-35.55 -21.97,-61.07 -56.88,-68.84 l 67.87,-76.91 z" /></clipPath><clipPath
       id="clipPath135"
       clipPathUnits="userSpaceOnUse"><path
         inkscape:connector-curvature="0"
         id="path133"
         d="m 2314.41,1329.3 -27.47,-71.09 h 55.26 z m 60.76,-156.41 -15.19,39.42 h -91.14 l -15.19,-39.42 h -57.2 l 90.49,216.53 h 54.61 l 90.5,-216.53 z" /></clipPath><clipPath
       id="clipPath151"
       clipPathUnits="userSpaceOnUse"><path
         inkscape:connector-curvature="0"
         id="path149"
         d="m 2659.27,1254.01 c -10.02,-54.3 -53.64,-85.97 -109.22,-85.97 -64.32,0 -115.06,49.45 -115.06,113.11 0,63.35 50.74,113.11 115.06,113.11 53.32,0 98.56,-31.67 108.9,-83.05 l -52.35,-12.28 c -6.79,31.35 -28.76,46.54 -56.55,46.54 -34.26,0 -61.73,-27.48 -61.73,-64.32 0,-36.84 27.47,-64.63 61.73,-64.63 27.47,0 49.44,15.51 56.87,47.83 z" /></clipPath><clipPath
       id="clipPath167"
       clipPathUnits="userSpaceOnUse"><path
         inkscape:connector-curvature="0"
         id="path165"
         d="m 2791.5,1342.88 v -169.99 h -53.01 v 169.99 h -70.12 v 46.54 h 193.26 v -46.54 z" /></clipPath><clipPath
       id="clipPath183"
       clipPathUnits="userSpaceOnUse"><path
         inkscape:connector-curvature="0"
         id="path181"
         d="m 3121.83,1172.89 h -159.98 v 216.53 h 53.33 v -169.99 h 106.65 z" /></clipPath><clipPath
       id="clipPath199"
       clipPathUnits="userSpaceOnUse"><path
         inkscape:connector-curvature="0"
         id="path197"
         d="m 3315.12,1280.83 c 0,37.16 -26.82,64.64 -62.05,64.64 -35.22,0 -62.05,-27.48 -62.05,-64.64 0,-36.84 26.83,-63.99 62.05,-63.99 35.23,0 62.05,27.15 62.05,63.99 z m 53.32,0 c 0,-63.02 -50.74,-112.79 -115.37,-112.79 -64.64,0 -115.38,49.77 -115.38,112.79 0,63.35 50.74,113.43 115.38,113.43 64.63,0 115.37,-50.08 115.37,-113.43 z" /></clipPath><clipPath
       id="clipPath215"
       clipPathUnits="userSpaceOnUse"><path
         inkscape:connector-curvature="0"
         id="path213"
         d="m 3618.62,1300.54 c 0.98,-7.75 1.3,-14.21 1.3,-19.71 0,-65.61 -46.87,-112.79 -112.15,-112.79 -65.61,0 -116.67,49.45 -116.67,113.11 0,63.35 50.74,113.11 115.7,113.11 48.16,0 90.49,-22.61 105.69,-64.96 l -51.39,-14.86 c -12.61,24.56 -33.29,31.03 -54.3,31.03 -35.22,0 -62.05,-27.8 -62.05,-64.32 0,-36.84 27.47,-64.63 63.66,-64.63 28.45,0 49.14,14.86 57.21,38.78 h -66.25 v 45.24 z" /></clipPath><clipPath
       id="clipPath231"
       clipPathUnits="userSpaceOnUse"><path
         inkscape:connector-curvature="0"
         id="path229"
         d="m 3820.01,1280.83 c 0,37.16 -26.83,64.64 -62.05,64.64 -35.23,0 -62.06,-27.48 -62.06,-64.64 0,-36.84 26.83,-63.99 62.06,-63.99 35.22,0 62.05,27.15 62.05,63.99 z m 53.32,0 c 0,-63.02 -50.75,-112.79 -115.37,-112.79 -64.64,0 -115.39,49.77 -115.39,112.79 0,63.35 50.75,113.43 115.39,113.43 64.62,0 115.37,-50.08 115.37,-113.43 z" /></clipPath><clipPath
       id="clipPath253"
       clipPathUnits="userSpaceOnUse"><path
         inkscape:connector-curvature="0"
         id="path251"
         d="m 2808.28,2209.96 c -110.05,0 60.65,126.75 19.38,228.48 -11.82,29.16 -28.59,40.71 -50.23,40.71 -78.86,0 -222.2,-153.63 -425.04,-169.33 h -0.04 c -7.77,-0.55 -15.53,-0.83 -23.31,-0.83 -128.37,0 -257.69,74.88 -342.13,199.66 -61.2,90.44 -184.04,339.6 -3.43,698.91 34.04,67.71 69.2,117.5 105.53,159.96 27.81,27.26 55.47,51.01 82.78,74.45 14.58,12.52 29,24.9 43.23,37.64 72.87,65.25 132.97,142.2 183.74,235.27 101.46,185.75 127.18,366.16 130.88,484.8 0.27,8.6 0.4,17.05 0.4,25.34 0.02,91.66 -15.24,163.84 -22.52,193.05 43.92,-160.38 113.66,-361.87 113.7,-565.64 0.01,-45.26 -3.42,-90.63 -11.33,-135.69 -6.54,-37.11 -16.11,-74.02 -29.3,-110.45 -40.52,-111.91 -115.64,-218.89 -241.2,-315.91 -164.34,-126.98 -209.39,-299.16 -209.42,-411.27 0,-2.12 0.02,-4.22 0.05,-6.3 0.44,-28.87 3.2,-56.14 7.85,-81.89 21.68,-76.56 61.58,-110.48 110.7,-110.48 37.79,0 81.04,20.07 125.66,56.24 20.31,16.47 40.89,23.84 58.95,23.84 32.52,0 56.9,-23.9 56.91,-61.68 0.01,-30.56 -15.93,-70.21 -56.42,-113.62 -11.02,-11.82 -15.79,-23.81 -15.78,-34.98 0.03,-29.1 32.52,-52.59 71.5,-52.59 7.34,0 14.91,0.83 22.53,2.62 72.58,22.15 129.31,84.86 139.28,191.59 11.15,119.23 52.5,160.45 96.06,164.83 3.93,0.39 7.73,0.59 11.39,0.59 55.46,0 80.61,-46.17 104.46,-165.42 11.94,-59.73 63.03,-93.88 120.35,-93.88 87.39,0 189.3,79.32 189.25,268.2 0,13.44 -0.52,27.42 -1.6,41.98 -4.69,63.3 -12.58,158.69 -78.32,241.5 -76.75,96.68 -108.68,178.94 -108.72,237.3 -0.04,59.27 32.84,93.89 85.07,93.89 19.93,0 42.67,-5.03 67.5,-15.67 29.78,-12.79 68.65,-32.76 109.27,-71.29 v 0 0 0 0 c 0,0 167.38,-216.43 219.7,-466.31 -0.13,-4.73 -0.32,-9.48 -0.56,-14.2 -14.62,6.97 -30.59,10.62 -46.98,10.62 -2.64,0 -5.29,-0.1 -7.95,-0.29 -127.9,-9.14 -212.59,-243.34 -221.83,-270.07 -49.45,-143.15 -100.32,-269.39 -222.53,-364.37 -52.06,-40.43 -107.12,-77.15 -149.76,-79.13 -2.72,-0.12 -5.28,-0.18 -7.72,-0.18" /></clipPath><clipPath
       id="clipPath265"
       clipPathUnits="userSpaceOnUse"><path
         inkscape:connector-curvature="0"
         id="path263"
         d="m 2711,2061.46 c -19.14,0 -44.09,3.72 -54.29,21.5 -3.23,5.62 -4.83,12.42 -4.84,20.29 0,17.8 8.19,41.1 24.35,68.77 23.71,40.65 35.6,73.24 35.59,97.35 -0.01,9.89 -2.03,18.36 -6.05,25.37 -7.88,13.73 -23.31,20.99 -44.62,20.99 -33.53,0 -80.74,-18.26 -123.26,-47.68 -72.03,-49.81 -149.92,-75.08 -231.5,-75.1 h -0.05 c -156.33,0 -308.94,97.13 -398.27,253.44 -54.93,96.15 -82.23,203.3 -82.25,315.32 -0.04,140.1 42.58,287.82 127.12,431.21 45.2,76.67 90.84,130.27 136.08,174.6 -36.33,-42.46 -71.49,-92.25 -105.53,-159.96 -180.61,-359.31 -57.77,-608.47 3.43,-698.91 84.44,-124.78 213.76,-199.66 342.13,-199.66 7.78,0 15.54,0.28 23.31,0.83 h 0.04 c 202.84,15.7 346.18,169.33 425.04,169.33 21.64,0 38.41,-11.55 50.23,-40.71 41.27,-101.73 -129.43,-228.48 -19.38,-228.48 2.44,0 5,0.06 7.72,0.18 42.64,1.98 97.7,38.7 149.76,79.13 122.21,94.98 173.08,221.22 222.53,364.37 9.24,26.73 93.93,260.93 221.83,270.07 2.66,0.19 5.31,0.29 7.95,0.29 16.39,0 32.36,-3.65 46.98,-10.62 0.24,4.72 0.43,9.47 0.56,14.2 9.03,-43.1 14.62,-87.17 15.35,-131.31 0.07,-4.26 0.11,-8.51 0.11,-12.76 0.03,-63.77 -7.65,-127.17 -22.83,-188.45 l -0.27,-0.81 -0.93,-3.75 c -22.65,-77.76 -40,-106.74 -45.64,-106.74 -0.44,0.08 -10.29,3.1 -10.29,85.15 0,5.93 0.05,12.27 0.17,19.06 0.06,3.61 0.09,7.15 0.09,10.6 -0.01,53.55 -7.52,87.25 -22.87,102.84 -6.28,6.39 -13.82,9.64 -22.41,9.64 -50.59,0 -126.79,-116.15 -162.33,-199.99 -47.45,-112.12 -112.42,-265.65 -263.35,-367.59 -72.7,-49.05 -160.86,-82.01 -219.41,-82.01" /></clipPath><clipPath
       id="clipPath277"
       clipPathUnits="userSpaceOnUse"><path
         inkscape:connector-curvature="0"
         id="path275"
         d="m 2708.88,2945.43 c -53.78,0 -97.38,43.6 -97.38,97.38 0,53.78 43.6,97.38 97.38,97.38 53.79,0 97.39,-43.6 97.39,-97.38 0,-53.78 -43.6,-97.38 -97.39,-97.38" /></clipPath><clipPath
       id="clipPath291"
       clipPathUnits="userSpaceOnUse"><path
         inkscape:connector-curvature="0"
         id="path289"
         d="m 2563.59,1698.71 c 0.06,0.01 0.12,0.01 0.19,0.01 -0.07,0 -0.13,0 -0.19,-0.01" /></clipPath><clipPath
       id="clipPath303"
       clipPathUnits="userSpaceOnUse"><path
         inkscape:connector-curvature="0"
         id="path301"
         d="m 2563.94,1698.73 c 42.36,2.65 84.57,7.96 126.36,15.97 222.78,42.71 426.96,161.99 575.32,333.37 156.69,181 244.93,418.93 244.93,659.12 -109.66,-585.51 -560.57,-871.16 -1017.5,-871.16 -382.91,0 -769.99,200.41 -964.44,592.91 27.24,-95.23 68.27,-186.49 122.36,-270.07 102.76,-158.77 250.05,-287.41 421.39,-367.54 71.07,-33.23 145.89,-57.84 222.47,-73.61 -77.75,15.94 -153.41,40.81 -224.54,74.07 -172.99,80.91 -319.41,208.62 -423.42,369.31 -106.2,164.11 -162.34,354.63 -162.34,550.98 0,10.94 0.22,21.85 0.56,32.73 3.96,124.75 29.57,244.18 76.14,354.96 125.9,299.55 328.37,435.93 476.21,535.51 98.99,66.69 361.7,243.64 428.17,495.52 10.51,39.88 18.42,83.56 24.9,137.47 4.63,38.58 13.05,138.07 13.23,163.88 0,0 26.32,-86.77 26.3,-207.13 0,-8.29 -0.13,-16.74 -0.4,-25.34 -3.7,-118.64 -29.42,-299.05 -130.88,-484.8 -50.77,-93.07 -110.87,-170.02 -183.74,-235.27 -14.23,-12.74 -28.65,-25.12 -43.23,-37.64 -71.71,-61.57 -145.86,-125.24 -218.86,-249.05 -84.54,-143.39 -127.16,-291.11 -127.12,-431.21 0.02,-112.02 27.32,-219.17 82.25,-315.32 89.33,-156.31 241.94,-253.44 398.27,-253.44 h 0.05 c 81.58,0.02 159.47,25.29 231.5,75.1 42.52,29.42 89.73,47.68 123.26,47.68 21.31,0 36.74,-7.26 44.62,-20.99 4.02,-7.01 6.04,-15.48 6.05,-25.37 0.01,-24.11 -11.88,-56.7 -35.59,-97.35 -16.16,-27.67 -24.35,-50.97 -24.35,-68.77 0.01,-7.87 1.61,-14.67 4.84,-20.29 10.2,-17.78 35.15,-21.5 54.29,-21.5 58.55,0 146.71,32.96 219.41,82.01 150.93,101.94 215.9,255.47 263.35,367.59 35.54,83.84 111.74,199.99 162.33,199.99 8.59,0 16.13,-3.25 22.41,-9.64 15.35,-15.59 22.86,-49.29 22.87,-102.84 0,-3.45 -0.03,-6.99 -0.09,-10.6 -0.12,-6.79 -0.17,-13.13 -0.17,-19.06 0,-82.05 9.85,-85.07 10.29,-85.15 5.64,0 22.99,28.98 45.64,106.74 l 0.93,3.75 0.27,0.81 c 15.18,61.28 22.86,124.68 22.83,188.45 0,4.25 -0.04,8.5 -0.11,12.76 -4.97,300.13 -235.05,597.62 -235.05,597.62 170.36,-148.99 269.53,-395.38 269.53,-681.81 0,-240.23 -89.71,-481.63 -246.13,-662.33 -150.03,-173.3 -355.33,-292.26 -578.09,-334.97 -41.83,-8.01 -84.44,-13.38 -127.28,-16.05" /></clipPath><clipPath
       id="clipPath315"
       clipPathUnits="userSpaceOnUse"><path
         inkscape:connector-curvature="0"
         id="path313"
         d="m 2500.61,1696.76 c -69.09,0 -138.14,7.03 -205.78,20.96 67.56,-13.85 136.71,-20.96 205.8,-20.96 h 0.04 c 20.98,0 41.98,0.66 62.92,1.95 -20.98,-1.3 -41.98,-1.95 -62.98,-1.95 m 63.17,1.96 c 0.06,0.01 0.1,0.01 0.16,0.01 -0.05,0 -0.11,0 -0.16,-0.01" /></clipPath><clipPath
       id="clipPath327"
       clipPathUnits="userSpaceOnUse"><path
         inkscape:connector-curvature="0"
         id="path325"
         d="m 2500.67,1696.76 h -0.04 c -69.09,0 -138.24,7.11 -205.8,20.96 -76.58,15.77 -151.4,40.38 -222.47,73.61 -171.34,80.13 -318.63,208.77 -421.39,367.54 -54.09,83.58 -95.12,174.84 -122.36,270.07 194.45,-392.5 581.53,-592.91 964.44,-592.91 456.93,0 907.84,285.65 1017.5,871.16 0,-240.19 -88.24,-478.12 -244.93,-659.12 -148.36,-171.38 -352.54,-290.66 -575.32,-333.37 -41.79,-8.01 -84,-13.32 -126.36,-15.97 -0.06,0 -0.1,0 -0.16,-0.01 -0.07,0 -0.13,0 -0.19,-0.01 -20.94,-1.29 -41.94,-1.95 -62.92,-1.95" /></clipPath><linearGradient
       gradientTransform="matrix(3.4929852,0,0,3.4929852,-11850.263,664.88573)"
       gradientUnits="userSpaceOnUse"
       y2="-1041.7499"
       x2="6571.5435"
       y1="-1041.7499"
       x1="4531.5762"
       id="linearGradient1192"
       xlink:href="#linearGradient61"
       inkscape:collect="always" /><linearGradient
       inkscape:collect="always"
       xlink:href="#linearGradient61"
       id="linearGradient2239"
       x1="2306.2"
       y1="2512.7444"
       x2="6733.5498"
       y2="2512.7444"
       gradientUnits="userSpaceOnUse" /><linearGradient
       inkscape:collect="always"
       xlink:href="#linearGradient2253"
       id="linearGradient2247"
       x1="2018.66"
       y1="2512.7444"
       x2="6733.5498"
       y2="2512.7444"
       gradientUnits="userSpaceOnUse" /><clipPath
       clipPathUnits="userSpaceOnUse"
       id="clipPath2278"><rect
         style="opacity:1;fill:#4664b8;fill-opacity:1;stroke-width:8.86584282"
         id="rect2280"
         width="4320"
         height="4001.2725"
         x="2396.637"
         y="-4513.3813"
         transform="scale(1,-1)" /></clipPath></defs><sodipodi:namedview
     pagecolor="#ffffff"
     bordercolor="#666666"
     borderopacity="1"
     objecttolerance="10"
     gridtolerance="10"
     guidetolerance="10"
     inkscape:pageopacity="0"
     inkscape:pageshadow="2"
     inkscape:window-width="1366"
     inkscape:window-height="708"
     id="namedview871"
     showgrid="false"
     inkscape:zoom="0.79199998"
     inkscape:cx="212.64539"
     inkscape:cy="266.31473"
     inkscape:window-x="0"
     inkscape:window-y="0"
     inkscape:window-maximized="1"
     inkscape:current-layer="g879" /><g
     id="g877"
     inkscape:groupmode="layer"
     inkscape:label="ink_ext_XXXXXX"
     transform="matrix(1.3333333,0,0,-1.3333333,-319.55159,601.78398)"><g
       id="g879"
       transform="scale(0.1)"><g
   id="g1898"
   clip-path="url(#clipPath2278)"><path
     inkscape:connector-curvature="0"
     id="path895"
     style="fill:#ffffff;fill-opacity:1;fill-rule:nonzero;stroke:none"
     d="m 731.637,512.109 h 6001.9 v 4001.27 h -6001.9 z" /><path
     inkscape:connector-curvature="0"
     id="path897"
     style="fill:url(#linearGradient2247);fill-opacity:1;fill-rule:evenodd;stroke:none"
     d="M 6733.55,512.109 V 4513.38 h -502.69 c -6.7,-2.72 -13.31,-5.5 -19.69,-8.38 -360.8,-162.48 10.87,-712.52 -472.64,-1101.99 C 5255.03,3013.55 4674.56,3231.71 4195.85,2979.22 3680.21,2707.25 3990,2230.03 3531.71,1913.25 3073.41,1596.48 2878.09,1817.28 2419.52,1503.77 2110.4,1292.44 2034.99,806.48 2018.66,512.109 h 4714.89" /><path
     inkscape:connector-curvature="0"
     id="path899"
     style="fill:url(#linearGradient2239);fill-opacity:1;fill-rule:evenodd;stroke:none"
     d="M 6733.55,512.109 V 4513.38 H 6235 C 6062.56,4265.45 6355.76,3793.42 5937.48,3391.26 5461.73,2933.86 4826.76,3110.85 4343.35,2798.95 3822.64,2462.96 4195.09,1986.47 3739.27,1608.37 3283.46,1230.28 3056.09,1445.92 2599.67,1071.26 2436.12,937.012 2349.73,726.711 2306.2,512.109 h 4427.35" /><g
     id="g901"><g
       clip-path="url(#clipPath907)"
       id="g903"><path
         inkscape:connector-curvature="0"
         id="path909"
         style="fill:#48b9aa;fill-opacity:1;fill-rule:nonzero;stroke:none"
         d="m 6674.98,1286.07 0.06,-12.71 -3633.94,-14.15 -0.05,12.71 z" /><path
         inkscape:connector-curvature="0"
         id="path911"
         style="fill:#48b8a9;fill-opacity:1;fill-rule:nonzero;stroke:none"
         d="m 6675.04,1273.36 0.04,-12.7 -3633.93,-14.16 -0.05,12.71 z" /><path
         inkscape:connector-curvature="0"
         id="path913"
         style="fill:#47b7a8;fill-opacity:1;fill-rule:nonzero;stroke:none"
         d="m 6675.08,1260.66 0.05,-12.71 -3633.93,-14.16 -0.05,12.71 z" /><path
         inkscape:connector-curvature="0"
         id="path915"
         style="fill:#47b6a8;fill-opacity:1;fill-rule:nonzero;stroke:none"
         d="m 6675.13,1247.95 0.05,-12.71 -3633.93,-14.16 -0.05,12.71 z" /><path
         inkscape:connector-curvature="0"
         id="path917"
         style="fill:#47b6a8;fill-opacity:1;fill-rule:nonzero;stroke:none"
         d="m 6675.18,1235.24 0.05,-12.71 -3633.93,-14.15 -0.05,12.7 z" /><path
         inkscape:connector-curvature="0"
         id="path919"
         style="fill:#47b5a8;fill-opacity:1;fill-rule:nonzero;stroke:none"
         d="m 6675.23,1222.53 0.05,-12.71 -3633.93,-14.15 -0.05,12.71 z" /></g></g><path
     inkscape:connector-curvature="0"
     id="path947"
     style="fill:#211916;fill-opacity:1;fill-rule:evenodd;stroke:none"
     d="m 5747.68,2380.21 c -4.61,-24.24 44.34,-49.26 31.78,-58.69 -5.29,-3.2 -63.47,39.64 -63.47,39.64 l -1.53,6.92 -4.87,-4.28 -21.19,15.11 c 0,0 3.97,9.94 9.22,14.91 5.25,4.96 13.51,15.48 13.51,15.48 l 35.67,-3.28 c 0.1,0.23 1.78,-21.08 0.88,-25.81" /><path
     inkscape:connector-curvature="0"
     id="path949"
     style="fill:#3e222a;fill-opacity:1;fill-rule:evenodd;stroke:none"
     d="m 5624.85,2640.21 145.72,-20.68 c 0,0 -71.84,-215.91 -64.94,-218.67 6.91,-2.76 33.15,-11.74 33.15,-11.74 l 142.55,241.85 -201.25,111.67 -55.23,-102.43" /><path
     inkscape:connector-curvature="0"
     id="path951"
     style="fill:#828484;fill-opacity:1;fill-rule:evenodd;stroke:none"
     d="m 6361.01,2625.7 h -29.74 l 268.14,-1383.26 h 29.75 L 6361.01,2625.7" /><path
     inkscape:connector-curvature="0"
     id="path953"
     style="fill:#828484;fill-opacity:1;fill-rule:evenodd;stroke:none"
     d="m 6080.61,2625.7 h -29.75 l 268.15,-1383.26 h 29.76 L 6080.61,2625.7" /><path
     inkscape:connector-curvature="0"
     id="path955"
     style="fill:#b2b3b2;fill-opacity:1;fill-rule:evenodd;stroke:none"
     d="m 6014.19,2405.15 h 374.4 v 25.55 h -374.4 v -25.55" /><path
     inkscape:connector-curvature="0"
     id="path957"
     style="fill:#b2b3b2;fill-opacity:1;fill-rule:evenodd;stroke:none"
     d="m 5981.42,2190.18 h 446.21 v 25.55 h -446.21 v -25.55" /><path
     inkscape:connector-curvature="0"
     id="path959"
     style="fill:#b2b3b2;fill-opacity:1;fill-rule:evenodd;stroke:none"
     d="m 5936.8,1975.2 h 528.95 v 25.56 H 5936.8 v -25.56" /><path
     inkscape:connector-curvature="0"
     id="path961"
     style="fill:#b2b3b2;fill-opacity:1;fill-rule:evenodd;stroke:none"
     d="m 5895.89,1760.22 h 613.55 v 25.57 h -613.55 v -25.57" /><path
     inkscape:connector-curvature="0"
     id="path963"
     style="fill:#b2b3b2;fill-opacity:1;fill-rule:evenodd;stroke:none"
     d="m 5857.78,1545.25 h 696.28 v 25.56 h -696.28 v -25.56" /><path
     inkscape:connector-curvature="0"
     id="path965"
     style="fill:#b2b3b2;fill-opacity:1;fill-rule:evenodd;stroke:none"
     d="m 5818.74,1330.28 h 770.65 v 25.56 h -770.65 v -25.56" /><path
     inkscape:connector-curvature="0"
     id="path967"
     style="fill:#f1f1f1;fill-opacity:1;fill-rule:evenodd;stroke:none"
     d="m 6050.86,2625.7 h 29.75 L 5812.47,1242.44 h -29.75 l 268.14,1383.26" /><path
     inkscape:connector-curvature="0"
     id="path969"
     style="fill:#f1f1f1;fill-opacity:1;fill-rule:evenodd;stroke:none"
     d="m 6331.27,2625.7 h 29.74 L 6092.87,1242.44 h -29.75 l 268.15,1383.26" /><path
     inkscape:connector-curvature="0"
     id="path971"
     style="fill:#b2b3b2;fill-opacity:1;fill-rule:evenodd;stroke:none"
     d="m 6007.68,2618.96 h 389.51 v 25.56 h -389.51 v -25.56" /><path
     inkscape:connector-curvature="0"
     id="path973"
     style="fill:#828484;fill-opacity:1;fill-rule:evenodd;stroke:none"
     d="m 6369.06,2430.7 h -45.85 l -4.95,-25.55 h 70.33 v 25.55 h -19.53" /><path
     inkscape:connector-curvature="0"
     id="path975"
     style="fill:#828484;fill-opacity:1;fill-rule:evenodd;stroke:none"
     d="m 6410.73,2215.73 h -129.19 l -4.96,-25.56 h 151.05 v 25.56 h -16.9" /><path
     inkscape:connector-curvature="0"
     id="path977"
     style="fill:#828484;fill-opacity:1;fill-rule:evenodd;stroke:none"
     d="m 6452.41,2000.76 h -212.55 l -4.95,-25.56 h 230.84 v 25.56 h -13.34" /><path
     inkscape:connector-curvature="0"
     id="path979"
     style="fill:#828484;fill-opacity:1;fill-rule:evenodd;stroke:none"
     d="m 6494.08,1785.79 h -295.89 l -4.95,-25.57 h 316.2 v 25.57 h -15.36" /><path
     inkscape:connector-curvature="0"
     id="path981"
     style="fill:#828484;fill-opacity:1;fill-rule:evenodd;stroke:none"
     d="m 6535.75,1570.81 h -379.23 l -4.96,-25.57 h 402.5 v 25.57 h -18.31" /><path
     inkscape:connector-curvature="0"
     id="path983"
     style="fill:#828484;fill-opacity:1;fill-rule:evenodd;stroke:none"
     d="m 6577.43,1355.84 h -462.58 l -4.96,-25.57 h 479.5 v 25.57 h -11.96" /><path
     inkscape:connector-curvature="0"
     id="path985"
     style="fill:#383433;fill-opacity:1;fill-rule:evenodd;stroke:none"
     d="m 5886.73,3049.64 -9.67,-1.55 -1.1,-7.03 3.14,-2.31 c 3.84,0.03 8.71,7.77 7.63,10.89" /><path
     inkscape:connector-curvature="0"
     id="path987"
     style="fill:#ee6e4d;fill-opacity:1;fill-rule:evenodd;stroke:none"
     d="m 5662.53,3049.06 c 4.28,3.72 44.21,34.3 47.2,34.61 10.6,1.11 24.23,-5.8 39.12,-11.44 6.18,-2.34 13.09,-26.91 7.66,-27.32 -2.29,-0.17 -11.17,18.15 -12.03,18.27 -10.92,1.55 -21.3,2.75 -21.3,2.75 l -10.02,-5.14 7.44,-11.73 c 0,0 15.45,-7.44 11.73,-10.31 -3.72,-2.86 -23.46,4.3 -23.46,4.3 l -14.3,1.48 -3.66,-2.99 -28.38,7.52" /><path
     inkscape:connector-curvature="0"
     id="path989"
     style="fill:#f4a018;fill-opacity:1;fill-rule:evenodd;stroke:none"
     d="m 5605.93,2962.3 c 4.91,5.61 50.41,94.52 55.32,92.42 4.9,-2.1 37.11,-11.9 37.11,-11.9 0,0 -54.61,-161.03 -74.22,-151.23 -19.6,9.8 -18.21,70.71 -18.21,70.71" /><path
     inkscape:connector-curvature="0"
     id="path991"
     style="fill:#ee6e4d;fill-opacity:1;fill-rule:evenodd;stroke:none"
     d="m 5648.67,3277.35 19.68,-39.73 -18.5,-3.01 c 0,0 -25.75,-53 -29.16,-51.78 -3.42,1.22 -35.9,1.93 -35.9,1.93 l -11.14,-75.24 -86.21,73.46 24.66,46.71 33.11,110.27 99.14,-21.95 4.32,-40.66" /><path
     inkscape:connector-curvature="0"
     id="path993"
     style="fill:#383433;fill-opacity:1;fill-rule:evenodd;stroke:none"
     d="m 5598.49,3299.18 c -7.56,-1.38 -17.1,-28.09 -24.89,-35.34 -7.79,-7.25 -46.82,-19.71 -56.96,-17.94 -10.15,1.77 0.96,68.79 2.95,68.08 1.97,-0.7 78.9,-14.8 78.9,-14.8" /><path
     inkscape:connector-curvature="0"
     id="path995"
     style="fill:#211916;fill-opacity:1;fill-rule:evenodd;stroke:none"
     d="m 5742.77,2339.5 c -4.6,-24.26 44.35,-49.27 31.79,-58.69 -5.3,-3.2 -63.47,39.64 -63.47,39.64 l -1.54,6.91 -4.88,-4.27 -21.17,15.1 c 0,0 3.97,9.94 9.21,14.92 5.26,4.96 13.51,15.47 13.51,15.47 l 35.67,-3.28 c 0.11,0.23 1.78,-21.08 0.88,-25.8" /><path
     inkscape:connector-curvature="0"
     id="path997"
     style="fill:#3e2028;fill-opacity:1;fill-rule:evenodd;stroke:none"
     d="m 5544.63,2826.89 c -84.94,-3.45 -103.19,-75 -103.19,-75 0,-112.98 8.95,-111.66 98.35,-111.78 62.99,-0.09 115.6,-0.48 122.39,-1.49 10.5,-1.55 138.6,-3.03 138.6,-3.03 -35.59,-105.18 -54.36,-153.29 -96.39,-267.87 12.8,-4.14 25.61,-8.28 38.4,-12.42 0,0 94.66,142.88 149.28,237.98 25.32,44.09 55.04,111.16 16.14,125.42 -76.16,27.9 -253.91,41.08 -253.99,41.3 0,0 -10.45,66.23 -109.59,66.89" /><path
     inkscape:connector-curvature="0"
     id="path999"
     style="fill:#f08613;fill-opacity:1;fill-rule:evenodd;stroke:none"
     d="m 5495.22,3211.08 c -2.42,-0.7 -31.08,-38.37 -33.58,-47.14 -22.14,-77.68 -25.89,-409.81 -20.2,-412.05 7.31,-2.87 212.78,8.11 212.78,8.11 -14.78,122.61 -29.7,257.34 -77.76,372.98 -2.98,7.15 -4.36,16.62 -81.24,78.1" /><path
     inkscape:connector-curvature="0"
     id="path1001"
     style="fill:#302a29;fill-opacity:1;fill-rule:evenodd;stroke:none"
     d="m 5892.06,3226.47 2.67,-93.49 -17.1,-85.2 -22.99,-15.39 -33.62,2.39 15.2,177.93 55.84,13.76" /><path
     inkscape:connector-curvature="0"
     id="path1003"
     style="fill:#383433;fill-opacity:1;fill-rule:evenodd;stroke:none"
     d="m 5703.11,3006.77 174.42,41.43 2.57,-10.9 -174.41,-41.43 -2.58,10.9" /><path
     inkscape:connector-curvature="0"
     id="path1005"
     style="fill:#ee6e4d;fill-opacity:1;fill-rule:evenodd;stroke:none"
     d="m 5746.07,2984.53 c 6.65,0.35 29.05,4.21 42,8.76 12.96,4.55 50.06,31.85 43.76,32.2 -6.3,0.35 -42.7,-12.25 -42.35,-11.2 0.34,1.05 9.62,9.98 1.75,8.22 -7.88,-1.74 -34.46,-13.36 -34.46,-13.36 l -10.7,-24.62" /><path
     inkscape:connector-curvature="0"
     id="path1007"
     style="fill:#f4a018;fill-opacity:1;fill-rule:evenodd;stroke:none"
     d="m 5447.32,3104.37 c 5.6,-40.62 90.31,-194.12 115.17,-200.77 24.86,-6.65 201.99,76.14 201.99,76.14 -2.57,9.8 -5.14,19.6 -7.71,29.41 0,0 -162.13,-34.25 -170.25,-28.59 -16.17,11.28 -40.98,121.07 -73.69,169.69 -35.56,52.85 -72.59,5.47 -65.51,-45.88" /><path
     inkscape:connector-curvature="0"
     id="path1009"
     style="fill:#f8cd07;fill-opacity:1;fill-rule:evenodd;stroke:none"
     d="m 5608.8,3383.63 c 39.09,-8.61 63.3,-51.29 56.45,-97.29 l -148.54,32.7 c 13.09,44.63 52.99,73.19 92.09,64.59" /><path
     inkscape:connector-curvature="0"
     id="path1011"
     style="fill:#f8cd07;fill-opacity:1;fill-rule:evenodd;stroke:none"
     d="m 5635.04,3308.93 30.21,-22.59 37.44,-23.98 c 0,0 -194.09,44.61 -193.94,46.05 0.13,1.43 0.16,8.02 3.13,9.56 2.97,1.55 4.83,1.07 4.83,1.07 l 118.33,-10.11" /><path
     inkscape:connector-curvature="0"
     id="path1013"
     style="fill:#e47f17;fill-opacity:1;fill-rule:evenodd;stroke:none"
     d="m 5549.07,3164.41 25.01,-5.95 4.75,-50.96 -32.7,40.86 2.94,16.05" /><path
     inkscape:connector-curvature="0"
     id="path1015"
     style="fill:#383433;fill-opacity:1;fill-rule:evenodd;stroke:none"
     d="m 5903.22,3225.53 -15.06,-178.65 -11.15,0.95 15.05,178.64 11.16,-0.94" /><path
     inkscape:connector-curvature="0"
     id="path1017"
     style="fill:#211916;fill-opacity:1;fill-rule:evenodd;stroke:none"
     d="m 5815.85,3030.42 19.11,4.53 1.14,-4.81 -19.11,-4.53 -1.14,4.81" /><path
     inkscape:connector-curvature="0"
     id="path1019"
     style="fill:#211916;fill-opacity:1;fill-rule:evenodd;stroke:none"
     d="m 5840.18,3036.11 19.11,4.52 1.14,-4.8 -19.12,-4.53 -1.13,4.81" /><path
     inkscape:connector-curvature="0"
     id="path1021"
     style="fill:#302a29;fill-opacity:1;fill-rule:evenodd;stroke:none"
     d="m 5765.84,3013.01 c -0.74,2.72 -1.48,5.52 -2.18,8.15 l -60.55,-14.39 1.94,-8.16 c 28.92,5.72 51.72,10.54 51.72,10.54 0,0 3.86,1.68 9.07,3.86" /><path
     inkscape:connector-curvature="0"
     id="path1023"
     style="fill:#ee6e4d;fill-opacity:1;fill-rule:evenodd;stroke:none"
     d="m 5746.64,3068.39 c 0,0 1.75,-24.94 -0.53,-24.94 -2.28,0 -4.46,5.42 -5.78,12.95 -1.31,7.53 0.09,13.22 0.09,13.22 l 6.22,-1.23" /><path
     inkscape:connector-curvature="0"
     id="path1025"
     style="fill:#ee6e4d;fill-opacity:1;fill-rule:evenodd;stroke:none"
     d="m 5565.74,3288.53 c 9.01,-3.23 13.48,-13.81 9.96,-23.64 -3.52,-9.83 -13.66,-15.19 -22.68,-11.97 -9.01,3.22 -13.46,13.8 -9.96,23.63 3.52,9.83 13.66,15.19 22.68,11.98" /><path
     inkscape:connector-curvature="0"
     id="path1027"
     style="fill:#ed6843;fill-opacity:1;fill-rule:evenodd;stroke:none"
     d="m 5649.85,3234.61 18.5,3.01 -27.73,8.72 z" /><path
     inkscape:connector-curvature="0"
     id="path1029"
     style="fill:#ed6843;fill-opacity:1;fill-rule:evenodd;stroke:none"
     d="m 5584.79,3184.76 c 0,0 32.48,-0.71 35.9,-1.93 l 0.13,-0.02 -52.49,35.43 -16.54,35.18 c -13.37,-4.69 -28.72,-8.42 -34.84,-7.57 l -4.85,-16.16 -5.39,-10.21 5.2,6.04 62.17,-67.06 2.64,-28.24 8.07,54.54" /><path
     inkscape:connector-curvature="0"
     id="path1031"
     style="fill:#ec5f3a;fill-opacity:1;fill-rule:evenodd;stroke:none"
     d="m 5569.91,3279.38 c -1.77,2.87 -8.22,6.66 -13.92,4.51 -5.69,-2.15 -7.74,-11.27 -7.26,-17.85 0.49,-6.59 6.74,-11.2 11.63,-10.25 4.89,0.95 3.84,3.47 4.27,8.05 0.42,4.59 4.01,0.05 6.83,4.81 2.81,4.76 -1.55,10.73 -1.55,10.73" /><path
     inkscape:connector-curvature="0"
     id="path1033"
     style="fill:#100f0d;fill-opacity:1;fill-rule:evenodd;stroke:none"
     d="m 5708.53,1361.03 c 0,-58.19 -47.16,-105.35 -105.34,-105.35 H 3833.26 c -58.19,0 -105.36,47.16 -105.36,105.35 v 1225.93 c 0,58.18 47.17,53.15 105.36,53.15 h 1769.93 c 58.18,0 105.34,5.03 105.34,-53.15 V 1361.03" /><path
     inkscape:connector-curvature="0"
     id="path1035"
     style="fill:#e5e6ea;fill-opacity:1;fill-rule:evenodd;stroke:none"
     d="m 3805.23,2551.88 v -1074.6 h 1816.5 v 985.04 h -1816.5 v 89.56" /><path
     inkscape:connector-curvature="0"
     id="path1037"
     style="fill:#d3d3da;fill-opacity:1;fill-rule:nonzero;stroke:none"
     d="m 5090.66,1708.95 h 491.172 v 655.449 H 5090.66 Z" /><path
     inkscape:connector-curvature="0"
     id="path1039"
     style="fill:#35a290;fill-opacity:1;fill-rule:evenodd;stroke:none"
     d="m 3805.23,2462.32 h 1816.5 v 89.5586 h -1816.5 z" /><path
     inkscape:connector-curvature="0"
     id="path1041"
     style="fill:#d3d3da;fill-opacity:1;fill-rule:nonzero;stroke:none"
     d="m 3915.29,1533.16 h 1116.56 v 929.16 H 3915.29 Z" /><path
     inkscape:connector-curvature="0"
     id="path1043"
     style="fill:#329588;fill-opacity:1;fill-rule:nonzero;stroke:none"
     d="m 3915.29,2462.32 h 1116.56 v 89.5586 H 3915.29 Z" /><path
     inkscape:connector-curvature="0"
     id="path1045"
     style="fill:#43486d;fill-opacity:1;fill-rule:evenodd;stroke:none"
     d="m 5884.12,1222.26 v 0 l -0.05,-0.03 z m -0.43,-0.26 v 0 l -0.13,-0.06 z m -0.53,-0.29 v 0 l -0.2,-0.11 z m -0.43,-0.25 v 0 l -0.22,-0.11 z m -0.37,-0.19 v 0 l -0.56,-0.31 z m -0.6,-0.33 v 0 l -0.32,-0.18 z m -0.37,-0.21 v 0 c -17.96,-9.74 -38.45,-15.42 -60.24,-15.77 21.79,0.35 42.28,6.02 60.24,15.77 z m -60.37,-15.78 v 0 h -0.33 z m -0.55,0 v 0 l -0.45,-0.01 z m -0.77,-0.01 v 0 h -0.2 z m -2202.85,0 v 0 h 0.05 -0.03 z m 2202.17,0 h -0.05 0.05" /><path
     inkscape:connector-curvature="0"
     id="path1047"
     style="fill:#2c2725;fill-opacity:1;fill-rule:evenodd;stroke:none"
     d="m 5062.74,1735.47 h 493.71 v 647.79 h -493.71 v -647.79" /><path
     inkscape:connector-curvature="0"
     id="path1049"
     style="fill:#ffffff;fill-opacity:1;fill-rule:evenodd;stroke:none"
     d="m 5111.71,2308.05 h 123.68 v 7.74 h -123.68 v -7.74" /><path
     inkscape:connector-curvature="0"
     id="path1051"
     style="fill:#ffffff;fill-opacity:1;fill-rule:evenodd;stroke:none"
     d="m 5111.71,2288.91 h 65.32 v 7.74 h -65.32 v -7.74" /><path
     inkscape:connector-curvature="0"
     id="path1053"
     style="fill:#ffffff;fill-opacity:1;fill-rule:evenodd;stroke:none"
     d="m 5111.71,2269.79 h 105.35 v 7.75 h -105.35 v -7.75" /><path
     inkscape:connector-curvature="0"
     id="path1055"
     style="fill:#ffffff;fill-opacity:1;fill-rule:evenodd;stroke:none"
     d="m 5160.73,2231.55 h 61.47 v 7.75 h -61.47 v -7.75" /><path
     inkscape:connector-curvature="0"
     id="path1057"
     style="fill:#ffffff;fill-opacity:1;fill-rule:evenodd;stroke:none"
     d="m 5203.39,2212.4 h 59.8 v 7.76 h -59.8 v -7.76" /><path
     inkscape:connector-curvature="0"
     id="path1059"
     style="fill:#ffffff;fill-opacity:1;fill-rule:evenodd;stroke:none"
     d="m 5199.02,2288.91 h 111.42 v 7.74 h -111.42 v -7.74" /><path
     inkscape:connector-curvature="0"
     id="path1061"
     style="fill:#ffffff;fill-opacity:1;fill-rule:evenodd;stroke:none"
     d="m 5326.31,2288.91 h 53.22 v 7.74 h -53.22 v -7.74" /><path
     inkscape:connector-curvature="0"
     id="path1063"
     style="fill:#ffffff;fill-opacity:1;fill-rule:evenodd;stroke:none"
     d="m 5399.74,2288.91 h 71.82 v 7.74 h -71.82 v -7.74" /><path
     inkscape:connector-curvature="0"
     id="path1065"
     style="fill:#ffffff;fill-opacity:1;fill-rule:evenodd;stroke:none"
     d="m 5234.66,2269.79 h 62.7 v 7.75 h -62.7 v -7.75" /><path
     inkscape:connector-curvature="0"
     id="path1067"
     style="fill:#ffffff;fill-opacity:1;fill-rule:evenodd;stroke:none"
     d="m 5222.2,2258.4 h -61.47 v -7.75 h 116.13 v 7.75 h -54.66" /><path
     inkscape:connector-curvature="0"
     id="path1069"
     style="fill:#ffffff;fill-opacity:1;fill-rule:evenodd;stroke:none"
     d="m 5240.97,2231.55 h 61.49 v 7.75 h -61.49 v -7.75" /><path
     inkscape:connector-curvature="0"
     id="path1071"
     style="fill:#ffffff;fill-opacity:1;fill-rule:evenodd;stroke:none"
     d="m 5293.93,2250.65 h 68.33 v 7.75 h -68.33 v -7.75" /><path
     inkscape:connector-curvature="0"
     id="path1073"
     style="fill:#ffffff;fill-opacity:1;fill-rule:evenodd;stroke:none"
     d="m 5375.91,2250.65 h 35.84 v 7.75 h -35.84 v -7.75" /><path
     inkscape:connector-curvature="0"
     id="path1075"
     style="fill:#ffffff;fill-opacity:1;fill-rule:evenodd;stroke:none"
     d="m 5427.15,2250.65 h 44.41 v 7.75 h -44.41 v -7.75" /><path
     inkscape:connector-curvature="0"
     id="path1077"
     style="fill:#ffffff;fill-opacity:1;fill-rule:evenodd;stroke:none"
     d="m 5316.11,2231.55 h 77.66 v 7.75 h -77.66 v -7.75" /><path
     inkscape:connector-curvature="0"
     id="path1079"
     style="fill:#ffffff;fill-opacity:1;fill-rule:evenodd;stroke:none"
     d="m 5405.36,2231.55 h 23.2 v 7.75 h -23.2 v -7.75" /><path
     inkscape:connector-curvature="0"
     id="path1081"
     style="fill:#ffffff;fill-opacity:1;fill-rule:evenodd;stroke:none"
     d="m 5280.27,2212.4 h 44.45 v 7.76 h -44.45 v -7.76" /><path
     inkscape:connector-curvature="0"
     id="path1083"
     style="fill:#ffffff;fill-opacity:1;fill-rule:evenodd;stroke:none"
     d="m 5160.73,2174.16 h 61.47 v 7.74 h -61.47 v -7.74" /><path
     inkscape:connector-curvature="0"
     id="path1085"
     style="fill:#ffffff;fill-opacity:1;fill-rule:evenodd;stroke:none"
     d="m 5160.73,2155.01 h 61.47 v 7.74 h -61.47 v -7.74" /><path
     inkscape:connector-curvature="0"
     id="path1087"
     style="fill:#ffffff;fill-opacity:1;fill-rule:evenodd;stroke:none"
     d="m 5240.97,2155.01 h 55.38 v 7.74 h -55.38 v -7.74" /><path
     inkscape:connector-curvature="0"
     id="path1089"
     style="fill:#ffffff;fill-opacity:1;fill-rule:evenodd;stroke:none"
     d="m 5302.55,2181.9 h -61.58 v -7.74 h 105.5 v 7.74 h -43.92" /><path
     inkscape:connector-curvature="0"
     id="path1091"
     style="fill:#ffffff;fill-opacity:1;fill-rule:evenodd;stroke:none"
     d="m 5356.97,2174.16 h 27.61 v 7.74 h -27.61 v -7.74" /><path
     inkscape:connector-curvature="0"
     id="path1093"
     style="fill:#ffffff;fill-opacity:1;fill-rule:evenodd;stroke:none"
     d="m 5396.41,2174.16 h 34.16 v 7.74 h -34.16 v -7.74" /><path
     inkscape:connector-curvature="0"
     id="path1095"
     style="fill:#ffffff;fill-opacity:1;fill-rule:evenodd;stroke:none"
     d="m 5350.23,2155.01 h 61.52 v 7.74 h -61.52 v -7.74" /><path
     inkscape:connector-curvature="0"
     id="path1097"
     style="fill:#ffffff;fill-opacity:1;fill-rule:evenodd;stroke:none"
     d="m 5160.73,2135.91 h 61.47 v 7.75 h -61.47 v -7.75" /><path
     inkscape:connector-curvature="0"
     id="path1099"
     style="fill:#ffffff;fill-opacity:1;fill-rule:evenodd;stroke:none"
     d="m 5160.73,2116.77 h 61.47 v 7.74 h -61.47 v -7.74" /><path
     inkscape:connector-curvature="0"
     id="path1101"
     style="fill:#ffffff;fill-opacity:1;fill-rule:evenodd;stroke:none"
     d="m 5240.97,2135.91 h 35.89 v 7.75 h -35.89 v -7.75" /><path
     inkscape:connector-curvature="0"
     id="path1103"
     style="fill:#ffffff;fill-opacity:1;fill-rule:evenodd;stroke:none"
     d="m 5240.97,2116.77 h 112.73 v 7.74 h -112.73 v -7.74" /><path
     inkscape:connector-curvature="0"
     id="path1105"
     style="fill:#ffffff;fill-opacity:1;fill-rule:evenodd;stroke:none"
     d="m 5362.26,2143.66 h -68.33 v -7.75 h 117.82 v 7.75 h -49.49" /><path
     inkscape:connector-curvature="0"
     id="path1107"
     style="fill:#ffffff;fill-opacity:1;fill-rule:evenodd;stroke:none"
     d="m 5427.15,2135.91 h 44.41 v 7.75 h -44.41 v -7.75" /><path
     inkscape:connector-curvature="0"
     id="path1109"
     style="fill:#ffffff;fill-opacity:1;fill-rule:evenodd;stroke:none"
     d="m 5367.35,2116.77 h 63.22 v 7.74 h -63.22 v -7.74" /><path
     inkscape:connector-curvature="0"
     id="path1111"
     style="fill:#ffffff;fill-opacity:1;fill-rule:evenodd;stroke:none"
     d="m 5308.67,2155.01 h 26.17 v 7.74 h -26.17 v -7.74" /><path
     inkscape:connector-curvature="0"
     id="path1113"
     style="fill:#ffffff;fill-opacity:1;fill-rule:evenodd;stroke:none"
     d="m 5111.71,2086.26 h 65.32 v -7.74 h -65.32 v 7.74" /><path
     inkscape:connector-curvature="0"
     id="path1115"
     style="fill:#ffffff;fill-opacity:1;fill-rule:evenodd;stroke:none"
     d="m 5111.71,2067.17 h 105.35 v -7.76 h -105.35 v 7.76" /><path
     inkscape:connector-curvature="0"
     id="path1117"
     style="fill:#ffffff;fill-opacity:1;fill-rule:evenodd;stroke:none"
     d="m 5160.73,2048.02 h 61.47 v -7.76 h -61.47 v 7.76" /><path
     inkscape:connector-curvature="0"
     id="path1119"
     style="fill:#ffffff;fill-opacity:1;fill-rule:evenodd;stroke:none"
     d="m 5160.73,2028.92 h 61.47 v -7.81 h -61.47 v 7.81" /><path
     inkscape:connector-curvature="0"
     id="path1121"
     style="fill:#ffffff;fill-opacity:1;fill-rule:evenodd;stroke:none"
     d="m 5288.42,2086.26 h -89.4 v -7.74 h 108.87 v 7.74 h -19.47" /><path
     inkscape:connector-curvature="0"
     id="path1123"
     style="fill:#ffffff;fill-opacity:1;fill-rule:evenodd;stroke:none"
     d="m 5328.1,2086.26 h 99.29 v -7.74 h -99.29 v 7.74" /><path
     inkscape:connector-curvature="0"
     id="path1125"
     style="fill:#ffffff;fill-opacity:1;fill-rule:evenodd;stroke:none"
     d="m 5234.66,2067.17 h 62.7 v -7.76 h -62.7 v 7.76" /><path
     inkscape:connector-curvature="0"
     id="path1127"
     style="fill:#ffffff;fill-opacity:1;fill-rule:evenodd;stroke:none"
     d="m 5240.97,2028.92 h 47.82 v -7.81 h -47.82 v 7.81" /><path
     inkscape:connector-curvature="0"
     id="path1129"
     style="fill:#ffffff;fill-opacity:1;fill-rule:evenodd;stroke:none"
     d="m 5335.77,2048.02 h -94.8 v -7.76 h 139.18 v 7.76 h -44.38" /><path
     inkscape:connector-curvature="0"
     id="path1131"
     style="fill:#ffffff;fill-opacity:1;fill-rule:evenodd;stroke:none"
     d="m 5302.46,2028.92 h 91.31 v -7.81 h -91.31 v 7.81" /><path
     inkscape:connector-curvature="0"
     id="path1133"
     style="fill:#ffffff;fill-opacity:1;fill-rule:evenodd;stroke:none"
     d="m 5405.36,2028.92 h 23.2 v -7.81 h -23.2 v 7.81" /><path
     inkscape:connector-curvature="0"
     id="path1135"
     style="fill:#ffffff;fill-opacity:1;fill-rule:evenodd;stroke:none"
     d="m 5280.27,2009.77 h 44.45 v -7.75 h -44.45 v 7.75" /><path
     inkscape:connector-curvature="0"
     id="path1137"
     style="fill:#ffffff;fill-opacity:1;fill-rule:evenodd;stroke:none"
     d="m 5263.19,2009.77 h -59.8 v -7.75 h 213.95 v 7.75 h -154.15" /><path
     inkscape:connector-curvature="0"
     id="path1139"
     style="fill:#ffffff;fill-opacity:1;fill-rule:evenodd;stroke:none"
     d="m 5429.66,2009.77 h 24.72 v -7.75 h -24.72 v 7.75" /><path
     inkscape:connector-curvature="0"
     id="path1141"
     style="fill:#ffffff;fill-opacity:1;fill-rule:evenodd;stroke:none"
     d="m 5160.73,1971.51 h 61.47 v -7.73 h -61.47 v 7.73" /><path
     inkscape:connector-curvature="0"
     id="path1143"
     style="fill:#ffffff;fill-opacity:1;fill-rule:evenodd;stroke:none"
     d="m 5160.73,1952.37 h 61.47 v -7.75 h -61.47 v 7.75" /><path
     inkscape:connector-curvature="0"
     id="path1145"
     style="fill:#ffffff;fill-opacity:1;fill-rule:evenodd;stroke:none"
     d="m 5240.97,1971.51 h 101.22 v -7.73 h -101.22 v 7.73" /><path
     inkscape:connector-curvature="0"
     id="path1147"
     style="fill:#ffffff;fill-opacity:1;fill-rule:evenodd;stroke:none"
     d="m 5240.97,1952.37 h 55.38 v -7.75 h -55.38 v 7.75" /><path
     inkscape:connector-curvature="0"
     id="path1149"
     style="fill:#ffffff;fill-opacity:1;fill-rule:evenodd;stroke:none"
     d="m 5356.97,1971.51 h 27.61 v -7.73 h -27.61 v 7.73" /><path
     inkscape:connector-curvature="0"
     id="path1151"
     style="fill:#ffffff;fill-opacity:1;fill-rule:evenodd;stroke:none"
     d="m 5396.41,1971.51 h 34.16 v -7.73 h -34.16 v 7.73" /><path
     inkscape:connector-curvature="0"
     id="path1153"
     style="fill:#ffffff;fill-opacity:1;fill-rule:evenodd;stroke:none"
     d="m 5350.23,1952.37 h 61.52 v -7.75 h -61.52 v 7.75" /><path
     inkscape:connector-curvature="0"
     id="path1155"
     style="fill:#ffffff;fill-opacity:1;fill-rule:evenodd;stroke:none"
     d="m 5308.67,1952.37 h 26.17 v -7.75 h -26.17 v 7.75" /><path
     inkscape:connector-curvature="0"
     id="path1157"
     style="fill:#ffffff;fill-opacity:1;fill-rule:evenodd;stroke:none"
     d="m 5111.71,1921.01 h 65.32 v -7.75 h -65.32 v 7.75" /><path
     inkscape:connector-curvature="0"
     id="path1159"
     style="fill:#ffffff;fill-opacity:1;fill-rule:evenodd;stroke:none"
     d="m 5111.71,1901.9 h 105.35 v -7.74 h -105.35 v 7.74" /><path
     inkscape:connector-curvature="0"
     id="path1161"
     style="fill:#ffffff;fill-opacity:1;fill-rule:evenodd;stroke:none"
     d="m 5160.73,1882.76 h 61.47 v -7.74 h -61.47 v 7.74" /><path
     inkscape:connector-curvature="0"
     id="path1163"
     style="fill:#ffffff;fill-opacity:1;fill-rule:evenodd;stroke:none"
     d="m 5160.73,1863.66 h 61.47 v -7.75 h -61.47 v 7.75" /><path
     inkscape:connector-curvature="0"
     id="path1165"
     style="fill:#ffffff;fill-opacity:1;fill-rule:evenodd;stroke:none"
     d="m 5203.39,1844.5 h 59.8 v -7.73 h -59.8 v 7.73" /><path
     inkscape:connector-curvature="0"
     id="path1167"
     style="fill:#ffffff;fill-opacity:1;fill-rule:evenodd;stroke:none"
     d="m 5199.02,1921.01 h 61.82 v -7.75 h -61.82 v 7.75" /><path
     inkscape:connector-curvature="0"
     id="path1169"
     style="fill:#ffffff;fill-opacity:1;fill-rule:evenodd;stroke:none"
     d="m 5341.44,1921.01 h -64.77 v -7.75 h 194.89 v 7.75 h -130.12" /><path
     inkscape:connector-curvature="0"
     id="path1171"
     style="fill:#ffffff;fill-opacity:1;fill-rule:evenodd;stroke:none"
     d="m 5234.66,1901.9 h 62.7 v -7.74 h -62.7 v 7.74" /><path
     inkscape:connector-curvature="0"
     id="path1173"
     style="fill:#ffffff;fill-opacity:1;fill-rule:evenodd;stroke:none"
     d="m 5240.97,1863.66 h 47.82 v -7.75 h -47.82 v 7.75" /><path
     inkscape:connector-curvature="0"
     id="path1175"
     style="fill:#ffffff;fill-opacity:1;fill-rule:evenodd;stroke:none"
     d="m 5334.38,1882.76 h -93.41 v -7.74 h 139.18 v 7.74 h -45.77" /><path
     inkscape:connector-curvature="0"
     id="path1177"
     style="fill:#ffffff;fill-opacity:1;fill-rule:evenodd;stroke:none"
     d="m 5393.81,1882.76 h 31.66 v -7.74 h -31.66 v 7.74" /><path
     inkscape:connector-curvature="0"
     id="path1179"
     style="fill:#ffffff;fill-opacity:1;fill-rule:evenodd;stroke:none"
     d="m 5440.88,1882.76 h 30.68 v -7.74 h -30.68 v 7.74" /><path
     inkscape:connector-curvature="0"
     id="path1181"
     style="fill:#ffffff;fill-opacity:1;fill-rule:evenodd;stroke:none"
     d="m 5302.46,1863.66 h 91.31 v -7.75 h -91.31 v 7.75" /><path
     inkscape:connector-curvature="0"
     id="path1183"
     style="fill:#ffffff;fill-opacity:1;fill-rule:evenodd;stroke:none"
     d="m 5405.36,1863.66 h 23.2 v -7.75 h -23.2 v 7.75" /><path
     inkscape:connector-curvature="0"
     id="path1185"
     style="fill:#ffffff;fill-opacity:1;fill-rule:evenodd;stroke:none"
     d="m 5280.27,1844.5 h 44.45 v -7.73 h -44.45 v 7.73" /><path
     inkscape:connector-curvature="0"
     id="path1187"
     style="fill:#ffffff;fill-opacity:1;fill-rule:evenodd;stroke:none"
     d="m 5160.73,1787.12 h 61.47 v -7.75 h -61.47 v 7.75" /><path
     inkscape:connector-curvature="0"
     id="path1189"
     style="fill:#ffffff;fill-opacity:1;fill-rule:evenodd;stroke:none"
     d="m 5222.2,1806.26 h -61.47 v -7.74 h 181.46 v 7.74 H 5222.2" /><path
     inkscape:connector-curvature="0"
     id="path1191"
     style="fill:#ffffff;fill-opacity:1;fill-rule:evenodd;stroke:none"
     d="m 5240.97,1787.12 h 55.38 v -7.75 h -55.38 v 7.75" /><path
     inkscape:connector-curvature="0"
     id="path1193"
     style="fill:#ffffff;fill-opacity:1;fill-rule:evenodd;stroke:none"
     d="m 5356.97,1806.26 h 27.61 v -7.74 h -27.61 v 7.74" /><path
     inkscape:connector-curvature="0"
     id="path1195"
     style="fill:#ffffff;fill-opacity:1;fill-rule:evenodd;stroke:none"
     d="m 5396.41,1806.26 h 34.16 v -7.74 h -34.16 v 7.74" /><path
     inkscape:connector-curvature="0"
     id="path1197"
     style="fill:#ffffff;fill-opacity:1;fill-rule:evenodd;stroke:none"
     d="m 5350.23,1787.12 h 61.52 v -7.75 h -61.52 v 7.75" /><path
     inkscape:connector-curvature="0"
     id="path1199"
     style="fill:#ffffff;fill-opacity:1;fill-rule:evenodd;stroke:none"
     d="m 5308.67,1787.12 h 26.17 v -7.75 h -26.17 v 7.75" /><path
     inkscape:connector-curvature="0"
     id="path1201"
     style="fill:#3eadb1;fill-opacity:1;fill-rule:evenodd;stroke:none"
     d="m 5062.74,2344.79 h 493.71 v 38.47 h -493.71 v -38.47" /><path
     inkscape:connector-curvature="0"
     id="path1203"
     style="fill:#e9e7e5;fill-opacity:1;fill-rule:evenodd;stroke:none"
     d="m 5532.69,2366.46 c 0,-5.55 -4.51,-10.06 -10.07,-10.06 -5.56,0 -10.07,4.51 -10.07,10.06 0,5.57 4.51,10.08 10.07,10.08 5.56,0 10.07,-4.51 10.07,-10.08" /><path
     inkscape:connector-curvature="0"
     id="path1205"
     style="fill:#e9e7e5;fill-opacity:1;fill-rule:evenodd;stroke:none"
     d="m 5499.11,2366.46 c 0,-5.55 -4.51,-10.06 -10.07,-10.06 -5.57,0 -10.08,4.51 -10.08,10.06 0,5.57 4.51,10.08 10.08,10.08 5.56,0 10.07,-4.51 10.07,-10.08" /><path
     inkscape:connector-curvature="0"
     id="path1207"
     style="fill:#ffffff;fill-opacity:1;fill-rule:evenodd;stroke:none"
     d="M 3874.66,1558.44 H 5002.22 V 2858.46 H 3874.66 V 1558.44" /><path
     inkscape:connector-curvature="0"
     id="path1209"
     style="fill:#3eadb1;fill-opacity:1;fill-rule:evenodd;stroke:none"
     d="m 3874.66,2795.64 h 1127.56 v 62.82 H 3874.66 v -62.82" /><path
     inkscape:connector-curvature="0"
     id="path1211"
     style="fill:#e9e7e5;fill-opacity:1;fill-rule:evenodd;stroke:none"
     d="m 4970.74,2828.61 c 0,-8.3 -6.73,-15.03 -15.03,-15.03 -8.31,0 -15.04,6.73 -15.04,15.03 0,8.3 6.73,15.03 15.04,15.03 8.3,0 15.03,-6.73 15.03,-15.03" /><path
     inkscape:connector-curvature="0"
     id="path1213"
     style="fill:#e9e7e5;fill-opacity:1;fill-rule:evenodd;stroke:none"
     d="m 4920.63,2828.61 c 0,-8.3 -6.74,-15.03 -15.04,-15.03 -8.3,0 -15.03,6.73 -15.03,15.03 0,8.3 6.73,15.03 15.03,15.03 8.3,0 15.04,-6.73 15.04,-15.03" /><path
     inkscape:connector-curvature="0"
     id="path1215"
     style="fill:#5ec2ce;fill-opacity:1;fill-rule:evenodd;stroke:none"
     d="m 3874.66,2609.43 h 1127.56 v 73.18 H 3874.66 v -73.18" /><path
     inkscape:connector-curvature="0"
     id="path1217"
     style="fill:#ffffff;fill-opacity:1;fill-rule:evenodd;stroke:none"
     d="m 4593.37,2630.01 h 345.6 v 32.07 h -345.6 v -32.07" /><path
     inkscape:connector-curvature="0"
     id="path1219"
     style="fill:#faf662;fill-opacity:1;fill-rule:evenodd;stroke:none"
     d="m 3951.39,2635.22 h 101.1 v 21.61 h -101.1 v -21.61" /><path
     inkscape:connector-curvature="0"
     id="path1221"
     style="fill:#faf662;fill-opacity:1;fill-rule:evenodd;stroke:none"
     d="m 4060.77,2635.22 h 101.09 v 21.61 h -101.09 v -21.61" /><path
     inkscape:connector-curvature="0"
     id="path1223"
     style="fill:#faf662;fill-opacity:1;fill-rule:evenodd;stroke:none"
     d="m 4170.12,2635.22 h 101.11 v 21.61 h -101.11 v -21.61" /><path
     inkscape:connector-curvature="0"
     id="path1225"
     style="fill:#faf662;fill-opacity:1;fill-rule:evenodd;stroke:none"
     d="m 4279.5,2635.22 h 101.09 v 21.61 H 4279.5 v -21.61" /><path
     inkscape:connector-curvature="0"
     id="path1227"
     style="fill:#f28b69;fill-opacity:1;fill-rule:evenodd;stroke:none"
     d="m 4098.04,2334.03 h 205.33 v 166.36 h -205.33 v -166.36" /><path
     inkscape:connector-curvature="0"
     id="path1229"
     style="fill:#ffffff;fill-opacity:1;fill-rule:evenodd;stroke:none"
     d="m 4953.98,2657.64 v 0 c 4.2,4.1 11,4.1 15.2,0 4.19,-4.1 4.19,-10.75 0,-14.84 -4.2,-4.1 -11,-4.1 -15.2,0 -4.19,4.09 -4.19,10.74 0,14.84 z m 7.6,0.61 c -4.44,0 -8.03,-3.59 -8.03,-8.03 0,-4.43 3.59,-8.03 8.03,-8.03 4.44,0 8.03,3.6 8.03,8.03 0,4.44 -3.59,8.03 -8.03,8.03" /><path
     inkscape:connector-curvature="0"
     id="path1231"
     style="fill:#ffffff;fill-opacity:1;fill-rule:evenodd;stroke:none"
     d="m 4971.01,2638.7 -2.37,2.34 1.28,1.05 1.27,1.53 2.41,-2.37 -2.59,-2.55" /><path
     inkscape:connector-curvature="0"
     id="path1233"
     style="fill:#ffffff;fill-opacity:1;fill-rule:evenodd;stroke:none"
     d="m 4983.7,2631.82 v -3.02 h -3.1 l -9.38,9.24 3.08,3.03 9.4,-9.25" /><path
     inkscape:connector-curvature="0"
     id="path1235"
     style="fill:#ffffff;fill-opacity:1;fill-rule:evenodd;stroke:none"
     d="m 4960.95,2643.64 2.33,0.46 0.4,0.93 -0.94,0.4 -1.79,-0.35 c -1.58,0 -2.93,0.81 -3.44,2.1 l -0.94,0.4 -0.39,-0.94 c 0.76,-1.91 2.7,-3 4.76,-3 h 0.01" /><path
     inkscape:connector-curvature="0"
     id="path1237"
     style="fill:#f5b464;fill-opacity:1;fill-rule:evenodd;stroke:none"
     d="m 4326.41,2335.38 h 205.32 v 166.37 h -205.32 v -166.37" /><path
     inkscape:connector-curvature="0"
     id="path1239"
     style="fill:#88d2ee;fill-opacity:1;fill-rule:evenodd;stroke:none"
     d="m 4554.77,2336.22 h 205.32 v 166.36 h -205.32 v -166.36" /><path
     inkscape:connector-curvature="0"
     id="path1241"
     style="fill:#c3c3c3;fill-opacity:1;fill-rule:evenodd;stroke:none"
     d="m 3964.51,1753.39 h 293.98 v 14.49 h -293.98 v -14.49" /><path
     inkscape:connector-curvature="0"
     id="path1243"
     style="fill:#c3c3c3;fill-opacity:1;fill-rule:evenodd;stroke:none"
     d="m 3964.51,1727.14 h 293.98 v 14.49 h -293.98 v -14.49" /><path
     inkscape:connector-curvature="0"
     id="path1245"
     style="fill:#c3c3c3;fill-opacity:1;fill-rule:evenodd;stroke:none"
     d="m 3964.51,1700.88 h 293.98 v 14.5 h -293.98 v -14.5" /><path
     inkscape:connector-curvature="0"
     id="path1247"
     style="fill:#c3c3c3;fill-opacity:1;fill-rule:evenodd;stroke:none"
     d="m 3964.51,1674.63 h 293.98 v 14.49 h -293.98 v -14.49" /><path
     inkscape:connector-curvature="0"
     id="path1249"
     style="fill:#c3c3c3;fill-opacity:1;fill-rule:evenodd;stroke:none"
     d="m 3964.51,1648.38 h 293.98 v 14.49 h -293.98 v -14.49" /><path
     inkscape:connector-curvature="0"
     id="path1251"
     style="fill:#c3c3c3;fill-opacity:1;fill-rule:evenodd;stroke:none"
     d="m 3964.51,1622.13 h 293.98 v 14.49 h -293.98 v -14.49" /><path
     inkscape:connector-curvature="0"
     id="path1253"
     style="fill:#c3c3c3;fill-opacity:1;fill-rule:evenodd;stroke:none"
     d="m 3964.51,1595.88 h 293.98 v 14.49 h -293.98 v -14.49" /><path
     inkscape:connector-curvature="0"
     id="path1255"
     style="fill:#c3c3c3;fill-opacity:1;fill-rule:evenodd;stroke:none"
     d="m 4295,1753.39 h 293.98 v 14.49 H 4295 v -14.49" /><path
     inkscape:connector-curvature="0"
     id="path1257"
     style="fill:#c3c3c3;fill-opacity:1;fill-rule:evenodd;stroke:none"
     d="m 4295,1727.14 h 293.98 v 14.49 H 4295 v -14.49" /><path
     inkscape:connector-curvature="0"
     id="path1259"
     style="fill:#c3c3c3;fill-opacity:1;fill-rule:evenodd;stroke:none"
     d="m 4295,1700.88 h 293.98 v 14.5 H 4295 v -14.5" /><path
     inkscape:connector-curvature="0"
     id="path1261"
     style="fill:#c3c3c3;fill-opacity:1;fill-rule:evenodd;stroke:none"
     d="m 4295,1674.63 h 293.98 v 14.49 H 4295 v -14.49" /><path
     inkscape:connector-curvature="0"
     id="path1263"
     style="fill:#c3c3c3;fill-opacity:1;fill-rule:evenodd;stroke:none"
     d="m 4295,1648.38 h 293.98 v 14.49 H 4295 v -14.49" /><path
     inkscape:connector-curvature="0"
     id="path1265"
     style="fill:#c3c3c3;fill-opacity:1;fill-rule:evenodd;stroke:none"
     d="m 4295,1622.13 h 293.98 v 14.49 H 4295 v -14.49" /><path
     inkscape:connector-curvature="0"
     id="path1267"
     style="fill:#c3c3c3;fill-opacity:1;fill-rule:evenodd;stroke:none"
     d="m 4295,1595.88 h 293.98 v 14.49 H 4295 v -14.49" /><path
     inkscape:connector-curvature="0"
     id="path1269"
     style="fill:#c3c3c3;fill-opacity:1;fill-rule:evenodd;stroke:none"
     d="m 4627.44,1753.39 h 293.96 v 14.49 h -293.96 v -14.49" /><path
     inkscape:connector-curvature="0"
     id="path1271"
     style="fill:#c3c3c3;fill-opacity:1;fill-rule:evenodd;stroke:none"
     d="m 4627.44,1727.14 h 293.96 v 14.49 h -293.96 v -14.49" /><path
     inkscape:connector-curvature="0"
     id="path1273"
     style="fill:#c3c3c3;fill-opacity:1;fill-rule:evenodd;stroke:none"
     d="m 4627.44,1700.88 h 293.96 v 14.5 h -293.96 v -14.5" /><path
     inkscape:connector-curvature="0"
     id="path1275"
     style="fill:#c3c3c3;fill-opacity:1;fill-rule:evenodd;stroke:none"
     d="m 4627.44,1674.63 h 293.96 v 14.49 h -293.96 v -14.49" /><path
     inkscape:connector-curvature="0"
     id="path1277"
     style="fill:#c3c3c3;fill-opacity:1;fill-rule:evenodd;stroke:none"
     d="m 4627.44,1648.38 h 293.96 v 14.49 h -293.96 v -14.49" /><path
     inkscape:connector-curvature="0"
     id="path1279"
     style="fill:#c3c3c3;fill-opacity:1;fill-rule:evenodd;stroke:none"
     d="m 4627.44,1622.13 h 293.96 v 14.49 h -293.96 v -14.49" /><path
     inkscape:connector-curvature="0"
     id="path1281"
     style="fill:#c3c3c3;fill-opacity:1;fill-rule:evenodd;stroke:none"
     d="m 4627.44,1595.88 h 293.96 v 14.49 h -293.96 v -14.49" /><path
     inkscape:connector-curvature="0"
     id="path1283"
     style="fill:#5ec2ce;fill-opacity:1;fill-rule:evenodd;stroke:none"
     d="m 3874.66,1874.03 h 1127.56 v 351.99 H 3874.66 v -351.99" /><path
     inkscape:connector-curvature="0"
     id="path1285"
     style="fill:#faf662;fill-opacity:1;fill-rule:evenodd;stroke:none"
     d="m 3980.37,1932.28 h 290.77 v 235.6 h -290.77 v -235.6" /><path
     inkscape:connector-curvature="0"
     id="path1287"
     style="fill:#ffffff;fill-opacity:1;fill-rule:evenodd;stroke:none"
     d="m 4346.11,2077.39 h 465.21 v 7.75 h -465.21 v -7.75" /><path
     inkscape:connector-curvature="0"
     id="path1289"
     style="fill:#ffffff;fill-opacity:1;fill-rule:evenodd;stroke:none"
     d="m 4346.11,2058.23 h 465.21 v 7.76 h -465.21 v -7.76" /><path
     inkscape:connector-curvature="0"
     id="path1291"
     style="fill:#ffffff;fill-opacity:1;fill-rule:evenodd;stroke:none"
     d="m 4346.11,2039.14 h 465.21 v 7.74 h -465.21 v -7.74" /><path
     inkscape:connector-curvature="0"
     id="path1293"
     style="fill:#ffffff;fill-opacity:1;fill-rule:evenodd;stroke:none"
     d="m 4346.11,2020 h 306.5 v 7.73 h -306.5 V 2020" /><path
     inkscape:connector-curvature="0"
     id="path1295"
     style="fill:#faf662;fill-opacity:1;fill-rule:evenodd;stroke:none"
     d="m 3887.6,2050.03 13.85,7.99 13.84,8 v -31.98 l -13.84,7.99 -13.85,8" /><path
     inkscape:connector-curvature="0"
     id="path1297"
     style="fill:#faf662;fill-opacity:1;fill-rule:evenodd;stroke:none"
     d="m 4989.28,2050.03 -13.84,7.99 -13.84,8 v -31.98 l 13.84,7.99 13.84,8" /><path
     inkscape:connector-curvature="0"
     id="path1299"
     style="fill:#f28b69;fill-opacity:1;fill-rule:evenodd;stroke:none"
     d="m 3964.51,1781.33 h 293.98 v 76.11 h -293.98 v -76.11" /><path
     inkscape:connector-curvature="0"
     id="path1301"
     style="fill:#88d2ee;fill-opacity:1;fill-rule:evenodd;stroke:none"
     d="m 4295,1778.18 h 293.98 v 76.12 H 4295 v -76.12" /><path
     inkscape:connector-curvature="0"
     id="path1303"
     style="fill:#f5b464;fill-opacity:1;fill-rule:evenodd;stroke:none"
     d="m 4627.44,1777.4 h 293.96 v 76.11 h -293.96 v -76.11" /><path
     inkscape:connector-curvature="0"
     id="path1305"
     style="fill:#515152;fill-opacity:1;fill-rule:evenodd;stroke:none"
     d="m 3658.03,1385.93 h 104.25 c 3.43,0 6.22,-2.8 6.22,-6.22 v -20.02 h -116.69 v 20.02 c 0,3.42 2.81,6.22 6.22,6.22" /><path
     inkscape:connector-curvature="0"
     id="path1307"
     style="fill:#515152;fill-opacity:1;fill-rule:evenodd;stroke:none"
     d="m 3784.04,1386.27 h 104.25 c 3.42,0 6.22,-2.8 6.22,-6.22 v -20.02 h -116.68 v 20.02 c 0,3.42 2.79,6.22 6.21,6.22" /><path
     inkscape:connector-curvature="0"
     id="path1309"
     style="fill:#515152;fill-opacity:1;fill-rule:evenodd;stroke:none"
     d="m 3910.05,1386.6 h 104.25 c 3.42,0 6.22,-2.79 6.22,-6.22 v -20.01 h -116.69 v 20.01 c 0,3.43 2.8,6.22 6.22,6.22" /><path
     inkscape:connector-curvature="0"
     id="path1311"
     style="fill:#515152;fill-opacity:1;fill-rule:evenodd;stroke:none"
     d="m 4036.06,1386.94 h 104.25 c 3.42,0 6.22,-2.8 6.22,-6.22 v -20.02 h -116.69 v 20.02 c 0,3.42 2.8,6.22 6.22,6.22" /><path
     inkscape:connector-curvature="0"
     id="path1313"
     style="fill:#515152;fill-opacity:1;fill-rule:evenodd;stroke:none"
     d="m 4162.07,1387.29 h 104.24 c 3.42,0 6.23,-2.81 6.23,-6.23 v -20.02 h -116.69 v 20.02 c 0,3.42 2.8,6.23 6.22,6.23" /><path
     inkscape:connector-curvature="0"
     id="path1315"
     style="fill:#515152;fill-opacity:1;fill-rule:evenodd;stroke:none"
     d="m 4288.07,1387.62 h 104.25 c 3.43,0 6.22,-2.8 6.22,-6.22 v -20.01 h -116.68 v 20.01 c 0,3.42 2.79,6.22 6.21,6.22" /><path
     inkscape:connector-curvature="0"
     id="path1317"
     style="fill:#515152;fill-opacity:1;fill-rule:evenodd;stroke:none"
     d="m 4414.09,1387.96 h 104.24 c 3.42,0 6.22,-2.8 6.22,-6.22 v -20.02 h -116.68 v 20.02 c 0,3.42 2.79,6.22 6.22,6.22" /><path
     inkscape:connector-curvature="0"
     id="path1319"
     style="fill:#515152;fill-opacity:1;fill-rule:evenodd;stroke:none"
     d="m 4540.09,1388.3 h 104.25 c 3.42,0 6.22,-2.8 6.22,-6.22 v -20.02 h -116.69 v 20.02 c 0,3.42 2.8,6.22 6.22,6.22" /><path
     inkscape:connector-curvature="0"
     id="path1321"
     style="fill:#515152;fill-opacity:1;fill-rule:evenodd;stroke:none"
     d="m 4666.1,1388.63 h 104.25 c 3.42,0 6.22,-2.79 6.22,-6.22 v -20.01 h -116.69 v 20.01 c 0,3.43 2.8,6.22 6.22,6.22" /><path
     inkscape:connector-curvature="0"
     id="path1323"
     style="fill:#515152;fill-opacity:1;fill-rule:evenodd;stroke:none"
     d="m 4792.11,1388.97 h 104.24 c 3.42,0 6.22,-2.8 6.22,-6.22 v -20.02 h -116.69 v 20.02 c 0,3.42 2.81,6.22 6.23,6.22" /><path
     inkscape:connector-curvature="0"
     id="path1325"
     style="fill:#515152;fill-opacity:1;fill-rule:evenodd;stroke:none"
     d="m 4918.11,1389.31 h 104.25 c 3.43,0 6.22,-2.8 6.22,-6.21 v -20.02 H 4911.9 v 20.02 c 0,3.41 2.79,6.21 6.21,6.21" /><path
     inkscape:connector-curvature="0"
     id="path1327"
     style="fill:#515152;fill-opacity:1;fill-rule:evenodd;stroke:none"
     d="m 5044.13,1389.65 h 104.25 c 3.41,0 6.21,-2.79 6.21,-6.22 v -20.02 h -116.68 v 20.02 c 0,3.43 2.79,6.22 6.22,6.22" /><path
     inkscape:connector-curvature="0"
     id="path1329"
     style="fill:#515152;fill-opacity:1;fill-rule:evenodd;stroke:none"
     d="m 5170.13,1389.99 h 104.25 c 3.42,0 6.22,-2.8 6.22,-6.22 v -20.02 h -116.69 v 20.02 c 0,3.42 2.8,6.22 6.22,6.22" /><path
     inkscape:connector-curvature="0"
     id="path1331"
     style="fill:#515152;fill-opacity:1;fill-rule:evenodd;stroke:none"
     d="m 5296.14,1390.32 h 104.25 c 3.41,0 6.22,-2.79 6.22,-6.22 v -20.01 h -116.69 v 20.01 c 0,3.43 2.8,6.22 6.22,6.22" /><path
     inkscape:connector-curvature="0"
     id="path1333"
     style="fill:#515152;fill-opacity:1;fill-rule:evenodd;stroke:none"
     d="m 5422.14,1390.66 h 104.25 c 3.43,0 6.22,-2.8 6.22,-6.22 v -20.02 h -116.69 v 20.02 c 0,3.42 2.81,6.22 6.22,6.22" /><path
     inkscape:connector-curvature="0"
     id="path1335"
     style="fill:#515152;fill-opacity:1;fill-rule:evenodd;stroke:none"
     d="m 5548.15,1391.01 h 104.25 c 3.43,0 6.22,-2.81 6.22,-6.22 v -20.02 h -116.68 v 20.02 c 0,3.41 2.79,6.22 6.21,6.22" /><path
     inkscape:connector-curvature="0"
     id="path1337"
     style="fill:#515152;fill-opacity:1;fill-rule:evenodd;stroke:none"
     d="m 5674.17,1391.34 h 104.24 c 3.42,0 6.22,-2.8 6.22,-6.22 v -20.01 h -116.68 v 20.01 c 0,3.42 2.79,6.22 6.22,6.22" /><path
     inkscape:connector-curvature="0"
     id="path1339"
     style="fill:#211916;fill-opacity:1;fill-rule:evenodd;stroke:none"
     d="m 3486.43,1369.24 v -25.67 c 0,-55.85 58.67,-101.13 131.04,-101.13 h 2201.5 c 72.36,0 131.05,45.28 131.05,101.13 v 25.67 H 3486.43" /><path
     inkscape:connector-curvature="0"
     id="path1341"
     style="fill:#383433;fill-opacity:1;fill-rule:evenodd;stroke:none"
     d="M 5937.46,1300.33 H 3499.01 c 20.93,-34.07 65.79,-57.69 117.84,-57.89 h 0.05 0.59 2201.49 0.04 0.48 0.2 l 0.32,0.01 h 0.45 0.22 l 0.33,0.01 h 0.13 c 21.79,0.27 42.28,4.65 60.24,12.17 l 0.05,0.03 0.32,0.13 0.04,0.01 0.56,0.25 0.15,0.06 0.22,0.1 0.23,0.09 0.2,0.09 0.4,0.18 0.13,0.05 0.38,0.17 0.05,0.02 c 23.15,10.26 41.85,25.81 53.34,44.52" /><path
     inkscape:connector-curvature="0"
     id="path1343"
     style="fill:#f18f12;fill-opacity:1;fill-rule:evenodd;stroke:none"
     d="m 5574.08,3158.46 c -1.69,-1.63 -28.88,-33.97 -28.88,-33.97 l -51.16,84.93 14.5,20.35 65.54,-71.31" /><path
     inkscape:connector-curvature="0"
     id="path1345"
     style="fill:#ee6e4d;fill-opacity:1;fill-rule:evenodd;stroke:none"
     d="m 5781.74,1536.46 -25.13,-9.31 c 0,0 -68.09,-79.78 -60.76,-83.53 7.31,-3.75 35.3,33.32 35.3,33.32 l 10.33,-11.05 c 0,0 14.94,-7.1 25.77,-1.91 10.82,5.21 13.53,41.39 13.53,41.39 l 0.96,31.09" /><path
     inkscape:connector-curvature="0"
     id="path1347"
     style="fill:#f4a018;fill-opacity:1;fill-rule:evenodd;stroke:none"
     d="m 5978.92,1929.59 c -8.19,4.32 -73.52,44.86 -73.52,44.86 l -47.09,-204.68 -101.7,-242.62 24.17,-21.78 c 0,0 114.66,182.79 137.16,217.56 22.5,34.77 87.74,204.98 87.74,204.98 l -26.76,1.68" /><path
     inkscape:connector-curvature="0"
     id="path1349"
     style="fill:#ee6e4d;fill-opacity:1;fill-rule:evenodd;stroke:none"
     d="m 5761.66,2030.36 -4.21,-47.24 19.61,4.17 c 0,0 46.22,-42.85 49.15,-40.31 2.92,2.53 35.04,15.84 35.04,15.84 l 40.28,-70.68 57.46,106.67 -42.71,37 -75.77,97.08 -90.32,-60.33 11.47,-42.2" /><path
     inkscape:connector-curvature="0"
     id="path1351"
     style="fill:#383433;fill-opacity:1;fill-rule:evenodd;stroke:none"
     d="m 5803.21,2071.58 c 8.08,1.54 27.94,-21.37 38.52,-25.58 10.58,-4.2 54.31,-1.5 63.74,4.21 9.44,5.69 -27.64,68.2 -29.34,66.72 -1.7,-1.46 -72.92,-45.35 -72.92,-45.35" /><path
     inkscape:connector-curvature="0"
     id="path1353"
     style="fill:#f08613;fill-opacity:1;fill-rule:evenodd;stroke:none"
     d="m 5929.43,2024.41 c 2.45,1.14 42.18,-8.27 50.34,-13.61 72.33,-47.26 292.97,-319.14 289.93,-324.93 -1.5,-2.85 -15.75,11.38 -38.09,-23.1 -12.23,-18.86 -29.44,-41.7 -45.87,-62.54 -25.73,-32.62 -49.6,-60.38 -49.6,-60.38 -72.57,287.62 -181.66,248.72 -240.39,352.4 -4.08,7.2 14.61,28.62 33.68,132.16" /><path
     inkscape:connector-curvature="0"
     id="path1355"
     style="fill:#f8cd07;fill-opacity:1;fill-rule:evenodd;stroke:none"
     d="m 5760.19,2151.77 c -35.63,-23.74 -43.22,-75.68 -18.55,-118.88 l 135.4,90.21 c -30.36,39.4 -81.22,52.41 -116.85,28.67" /><path
     inkscape:connector-curvature="0"
     id="path1357"
     style="fill:#383433;fill-opacity:1;fill-rule:evenodd;stroke:none"
     d="m 5776.71,2033.55 55.92,39.7 2.42,-3.39 -55.93,-39.69 -2.41,3.38" /><path
     inkscape:connector-curvature="0"
     id="path1359"
     style="fill:#f1f1f1;fill-opacity:1;fill-rule:evenodd;stroke:none"
     d="m 5786.36,2030.92 c 13.24,-27.69 0.33,-39.49 -17.59,-10.57 -12.34,19.9 8.67,29.27 17.59,10.57" /><path
     inkscape:connector-curvature="0"
     id="path1361"
     style="fill:#f8cd07;fill-opacity:1;fill-rule:evenodd;stroke:none"
     d="m 5763,2067.12 -21.36,-34.23 -28.03,-38.43 c 0,0 176.19,119.75 175.49,121.13 -0.7,1.36 -3.28,7.93 -6.84,8.32 -3.55,0.38 -5.22,-0.81 -5.22,-0.81 L 5763,2067.12" /><path
     inkscape:connector-curvature="0"
     id="path1363"
     style="fill:#e47f17;fill-opacity:1;fill-rule:evenodd;stroke:none"
     d="m 5904.74,1956.4 -22.62,-15.65 15.02,-52.63 16.76,53.41 -9.16,14.87" /><path
     inkscape:connector-curvature="0"
     id="path1365"
     style="fill:#f18f12;fill-opacity:1;fill-rule:evenodd;stroke:none"
     d="m 5882.12,1940.75 c 2.32,-0.96 36.37,-11.09 36.37,-11.09 l 18.09,92.24 -18.49,9.82 -35.97,-90.97" /><path
     inkscape:connector-curvature="0"
     id="path1367"
     style="fill:#ee6e4d;fill-opacity:1;fill-rule:evenodd;stroke:none"
     d="m 5839.99,2073.65 c -7.74,-6.7 -8.08,-18.98 -0.77,-27.42 7.32,-8.44 19.53,-9.84 27.26,-3.13 7.73,6.69 8.08,18.97 0.76,27.41 -7.31,8.45 -19.51,9.85 -27.25,3.14" /><path
     inkscape:connector-curvature="0"
     id="path1369"
     style="fill:#ed6843;fill-opacity:1;fill-rule:evenodd;stroke:none"
     d="m 5777.06,1987.29 -19.61,-4.17 24.26,19.44 z" /><path
     inkscape:connector-curvature="0"
     id="path1371"
     style="fill:#ed6843;fill-opacity:1;fill-rule:evenodd;stroke:none"
     d="m 5861.25,1962.82 c 0,0 -32.11,-13.3 -35.04,-15.84 l -0.12,-0.08 38.58,55.69 2.85,41.47 c 15.14,0.52 31.89,2.76 37.66,5.97 l 11.1,-14.22 9.34,-8.1 -7.53,4.01 -35.97,-90.97 8.32,-29.17 -29.19,51.24" /><path
     inkscape:connector-curvature="0"
     id="path1373"
     style="fill:#ec5f3a;fill-opacity:1;fill-rule:evenodd;stroke:none"
     d="m 5839.38,2062.93 c 0.66,3.53 5.62,9.81 12.13,9.88 6.5,0.07 12.09,-8.23 14.16,-14.98 2.07,-6.75 -2.37,-13.77 -7.62,-14.71 -5.24,-0.96 -5.17,1.96 -7.38,6.36 -2.21,4.41 -4.02,-1.5 -8.67,2.15 -4.65,3.64 -2.62,11.3 -2.62,11.3" /><path
     inkscape:connector-curvature="0"
     id="path1375"
     style="fill:#211916;fill-opacity:1;fill-rule:evenodd;stroke:none"
     d="m 5955.18,1271.55 c -7.9,-19.15 -53.76,-14.24 -49.27,-26.62 2.25,-4.68 62.78,-1.31 62.78,-1.31 l 4.25,4.15 1.45,-5.24 21.82,0.89 c 0,0 1.77,8.8 0.37,14.7 -1.41,5.89 -2.38,17.07 -2.38,17.07 l -26.55,14.07 c 0.03,0.21 -10.94,-13.99 -12.47,-17.71" /><path
     inkscape:connector-curvature="0"
     id="path1377"
     style="fill:#211916;fill-opacity:1;fill-rule:evenodd;stroke:none"
     d="m 6562.48,1289.07 c 24.63,-1.59 36.64,-55.24 48.9,-45.43 4.43,4.33 -22.54,71.36 -22.54,71.36 l -6.31,3.21 5.37,3.65 -9.36,24.28 c 0,0 -10.61,-1.35 -16.73,-5.2 -6.12,-3.84 -18.37,-9.21 -18.37,-9.21 l -5.72,-35.36 c -0.25,-0.04 19.96,-6.99 24.76,-7.3" /><path
     inkscape:connector-curvature="0"
     id="path1379"
     style="fill:#3e222a;fill-opacity:1;fill-rule:evenodd;stroke:none"
     d="m 6200.66,1347.29 c 19.95,-81.67 5.58,-115.27 80.34,-101.93 l 264.58,47.23 0.99,40.54 c -0.79,0.11 -200.4,16.85 -266.69,-1.45 0.69,14.84 23.67,235.37 5.41,290.7 -30.66,92.93 -109.44,58.81 -126.51,-9.14 -8.55,-34.03 31.52,-205.06 41.88,-265.95" /><path
     inkscape:connector-curvature="0"
     id="path1381"
     style="fill:#3e2028;fill-opacity:1;fill-rule:evenodd;stroke:none"
     d="m 5967.86,1641.82 c -81.48,-20.72 -98.62,-24.14 -80.32,-97.85 l 67.64,-272.42 39.63,-2.21 c -6.7,25.18 -3.41,252.04 -25.06,282.65 0,0 257.43,-25.97 309.17,0.82 30.7,15.91 39.8,113.94 -28.31,130.37 -34.11,8.24 -221.96,-30.44 -282.75,-41.36" /><path
     inkscape:connector-curvature="0"
     id="path1383"
     style="fill:#6a6b6d;fill-opacity:1;fill-rule:evenodd;stroke:none"
     d="m 6110.14,1761.49 230.27,56.42 c 5.9,1.45 11.91,-2.21 13.36,-8.12 l 40.24,-164.25 c 1.44,-5.91 -2.2,-11.92 -8.11,-13.36 l -230.25,-56.42 c -5.91,-1.44 -11.92,2.2 -13.37,8.11 l -40.24,164.25 c -1.45,5.91 2.19,11.93 8.1,13.37" /><path
     inkscape:connector-curvature="0"
     id="path1385"
     style="fill:#828484;fill-opacity:1;fill-rule:evenodd;stroke:none"
     d="m 6111.43,1756.25 c -3,-0.73 -4.88,-3.84 -4.14,-6.84 l 40.24,-164.25 c 0.73,-3 3.83,-4.89 6.83,-4.15 l 230.26,56.41 c 3,0.73 4.88,3.84 4.15,6.84 l -40.25,164.26 c -0.73,2.99 -3.83,4.88 -6.83,4.14 l -230.26,-56.41" /><path
     inkscape:connector-curvature="0"
     id="path1387"
     style="fill:#ee6e4d;fill-opacity:1;fill-rule:evenodd;stroke:none"
     d="m 6258.69,1679.32 c 3.38,-11.57 3.79,-22.62 3.79,-22.62 0,0 -11.13,-30.1 -12.25,-35.73 -1.13,-5.64 -0.85,-12.69 2.26,-13.81 3.09,-1.13 7.32,1.12 7.32,1.12 0,0 2.82,-6.48 10.43,-10.43 7.61,-3.94 11.28,-0.27 11.28,-0.27 0,0 8.96,-8.04 11.95,-5.01 2.99,3.03 5.52,5.28 5.52,5.28 0,0 6.2,-1.12 8.74,1.69 2.54,2.82 3.66,4.8 3.66,4.8 0,0 4.8,4.79 4.8,9.02 0,4.23 -22.59,53.82 -22.59,53.82 l -34.91,12.14" /><path
     inkscape:connector-curvature="0"
     id="path1389"
     style="fill:#f4a018;fill-opacity:1;fill-rule:evenodd;stroke:none"
     d="m 5989.85,2021.45 c 48.23,-11.75 190.42,-125.81 210.25,-153.48 19.83,-27.67 96.72,-205.79 96.72,-205.79 -8.42,-5.45 -39.29,-10.08 -39.29,-10.08 0,0 -99.48,164.51 -104.62,173.76 -10.25,18.43 -141.16,70.05 -189.33,110.16 -52.36,43.58 -21.97,97.17 26.27,85.43" /><path
     inkscape:connector-curvature="0"
     id="path1391"
     style="fill:#b2b3b2;fill-opacity:1;fill-rule:evenodd;stroke:none"
     d="m 3513.45,1743.17 h 73.39 v 75.64 h -73.39 v -75.64" /><path
     inkscape:connector-curvature="0"
     id="path1393"
     style="fill:#ee7417;fill-opacity:1;fill-rule:evenodd;stroke:none"
     d="m 3550.14,1763.13 c 30.67,0 55.68,25.01 55.68,55.68 0,30.66 -25.01,55.67 -55.68,55.67 -30.66,0 -55.67,-25.01 -55.67,-55.67 0,-30.67 25.01,-55.68 55.67,-55.68" /><path
     inkscape:connector-curvature="0"
     id="path1395"
     style="fill:#f8cd07;fill-opacity:1;fill-rule:evenodd;stroke:none"
     d="m 3550.14,1774.38 c 24.48,0 44.44,19.97 44.44,44.43 0,24.47 -19.96,44.42 -44.44,44.42 -24.47,0 -44.42,-19.95 -44.42,-44.42 0,-24.46 19.95,-44.43 44.42,-44.43" /><path
     inkscape:connector-curvature="0"
     id="path1397"
     style="fill:#b2b3b2;fill-opacity:1;fill-rule:evenodd;stroke:none"
     d="m 4119.67,1743.17 h 73.39 v 75.64 h -73.39 v -75.64" /><path
     inkscape:connector-curvature="0"
     id="path1399"
     style="fill:#ee7417;fill-opacity:1;fill-rule:evenodd;stroke:none"
     d="m 4156.36,1763.13 c 30.68,0 55.69,25.01 55.69,55.68 0,30.66 -25.01,55.67 -55.69,55.67 -30.66,0 -55.66,-25.01 -55.66,-55.67 0,-30.67 25,-55.68 55.66,-55.68" /><path
     inkscape:connector-curvature="0"
     id="path1401"
     style="fill:#f8cd07;fill-opacity:1;fill-rule:evenodd;stroke:none"
     d="m 4156.37,1774.38 c 24.47,0 44.43,19.97 44.43,44.43 0,24.47 -19.96,44.42 -44.43,44.42 -24.47,0 -44.43,-19.95 -44.43,-44.42 0,-24.46 19.96,-44.43 44.43,-44.43" /><path
     inkscape:connector-curvature="0"
     id="path1403"
     style="fill:#b2b3b2;fill-opacity:1;fill-rule:evenodd;stroke:none"
     d="m 3571.41,1750.82 h -61.85 l 111.06,-508.38 h 61.86 l -111.07,508.38" /><path
     inkscape:connector-curvature="0"
     id="path1405"
     style="fill:#c8c8c7;fill-opacity:1;fill-rule:evenodd;stroke:none"
     d="m 3560.73,1750.82 h -61.86 l 111.07,-508.38 h 61.86 l -111.07,508.38" /><path
     inkscape:connector-curvature="0"
     id="path1407"
     style="fill:#b2b3b2;fill-opacity:1;fill-rule:evenodd;stroke:none"
     d="m 3509.56,1750.82 h 61.85 l -111.06,-508.38 h -61.87 l 111.08,508.38" /><path
     inkscape:connector-curvature="0"
     id="path1409"
     style="fill:#dddedc;fill-opacity:1;fill-rule:evenodd;stroke:none"
     d="m 3498.87,1750.82 h 61.86 l -111.07,-508.38 h -61.86 l 111.07,508.38" /><path
     inkscape:connector-curvature="0"
     id="path1411"
     style="fill:#b2b3b2;fill-opacity:1;fill-rule:evenodd;stroke:none"
     d="m 4210.25,1750.82 h -61.86 l 111.07,-508.38 h 61.86 l -111.07,508.38" /><path
     inkscape:connector-curvature="0"
     id="path1413"
     style="fill:#c8c8c7;fill-opacity:1;fill-rule:evenodd;stroke:none"
     d="m 4199.58,1750.82 h -61.87 l 111.07,-508.38 h 61.86 l -111.06,508.38" /><path
     inkscape:connector-curvature="0"
     id="path1415"
     style="fill:#b2b3b2;fill-opacity:1;fill-rule:evenodd;stroke:none"
     d="m 4148.39,1750.82 h 61.86 l -111.06,-508.38 h -61.86 l 111.06,508.38" /><path
     inkscape:connector-curvature="0"
     id="path1417"
     style="fill:#dddedc;fill-opacity:1;fill-rule:evenodd;stroke:none"
     d="m 4137.71,1750.82 h 61.87 L 4088.5,1242.44 h -61.85 l 111.06,508.38" /><path
     inkscape:connector-curvature="0"
     id="path1419"
     style="fill:#dddedc;fill-opacity:1;fill-rule:evenodd;stroke:none"
     d="m 3392.22,1578.68 h 931.27 v 173.83 h -931.27 v -173.83" /><path
     inkscape:connector-curvature="0"
     id="path1421"
     style="fill:#ffffff;fill-opacity:1;fill-rule:evenodd;stroke:none"
     d="m 3383.01,1578.68 h 931.28 v 173.83 h -931.28 v -173.83" /><path
     inkscape:connector-curvature="0"
     id="path1423"
     style="fill:#ee7417;fill-opacity:1;fill-rule:evenodd;stroke:none"
     d="m 3607.39,1586.17 37.9,166.34 h -144.42 l -0.38,-1.69 -0.83,-3.63 -38.39,-168.51 h 10.67 51.18 10.68 2.68 10.68 51.19 7.33 l 1.71,7.49" /><path
     inkscape:connector-curvature="0"
     id="path1425"
     style="fill:#ee7417;fill-opacity:1;fill-rule:evenodd;stroke:none"
     d="m 3800.42,1752.51 -39.62,-173.83 h 144.41 l 39.62,173.83 h -144.41" /><path
     inkscape:connector-curvature="0"
     id="path1427"
     style="fill:#ee7417;fill-opacity:1;fill-rule:evenodd;stroke:none"
     d="m 4099.95,1752.51 -39.61,-173.83 h 144.4 l 16.56,72.66 5.46,23.92 17.6,77.25 h -144.41" /><path
     inkscape:connector-curvature="0"
     id="path1429"
     style="fill:#dddedc;fill-opacity:1;fill-rule:evenodd;stroke:none"
     d="m 3392.22,1359.05 h 931.27 v 173.83 h -931.27 v -173.83" /><path
     inkscape:connector-curvature="0"
     id="path1431"
     style="fill:#ffffff;fill-opacity:1;fill-rule:evenodd;stroke:none"
     d="m 3383.01,1359.05 h 931.28 v 173.83 h -931.28 v -173.83" /><path
     inkscape:connector-curvature="0"
     id="path1433"
     style="fill:#ee7417;fill-opacity:1;fill-rule:evenodd;stroke:none"
     d="m 3607.39,1366.54 37.9,166.34 h -144.42 l -0.38,-1.69 -0.83,-3.63 -38.39,-168.5 v -0.01 h 10.67 51.18 10.68 2.68 10.68 51.19 7.33 l 1.71,7.49" /><path
     inkscape:connector-curvature="0"
     id="path1435"
     style="fill:#ee7417;fill-opacity:1;fill-rule:evenodd;stroke:none"
     d="m 3800.42,1532.88 -39.62,-173.83 h 144.41 l 39.62,173.83 h -144.41" /><path
     inkscape:connector-curvature="0"
     id="path1437"
     style="fill:#ee7417;fill-opacity:1;fill-rule:evenodd;stroke:none"
     d="m 4099.95,1532.88 -39.61,-173.83 h 144.4 l 16.56,72.66 5.46,23.92 17.6,77.25 h -144.41" /><path
     inkscape:connector-curvature="0"
     id="path1439"
     style="fill:#ee7417;fill-opacity:1;fill-rule:evenodd;stroke:none"
     d="m 4824.43,1682.66 c -8.38,-0.39 -10.18,-2.33 -10.18,-2.33 0,0 -132.07,-400.99 -132.07,-415.82 0,-13.81 284.5,-13.81 284.5,0 0,14.83 -132.07,415.82 -132.07,415.82 0,0 -1.81,1.94 -10.18,2.33" /><path
     inkscape:connector-curvature="0"
     id="path1441"
     style="fill:#f28e29;fill-opacity:1;fill-rule:evenodd;stroke:none"
     d="m 4651.34,1277.21 h 343.55 c 6.77,0 12.3,-5.55 12.3,-12.32 v -10.13 c 0,-6.78 -5.53,-12.32 -12.3,-12.32 h -343.55 c -6.76,0 -12.31,5.54 -12.31,12.32 v 10.13 c 0,6.77 5.55,12.32 12.31,12.32" /><path
     inkscape:connector-curvature="0"
     id="path1443"
     style="fill:#f1f1f1;fill-opacity:1;fill-rule:evenodd;stroke:none"
     d="m 4916.66,1428.27 h -184.47 c -10,-31.15 -19.48,-60.94 -27.44,-86.37 h 239.36 c -7.96,25.43 -17.44,55.22 -27.45,86.37" /><path
     inkscape:connector-curvature="0"
     id="path1445"
     style="fill:#f1f1f1;fill-opacity:1;fill-rule:evenodd;stroke:none"
     d="m 4758.11,1508.54 h 132.63 c -10,30.83 -19.69,60.55 -28.13,86.36 h -76.36 c -8.44,-25.81 -18.13,-55.53 -28.14,-86.36" /><path
     inkscape:connector-curvature="0"
     id="path1447"
     style="fill:#ea841f;fill-opacity:1;fill-rule:evenodd;stroke:none"
     d="m 4944.11,1341.9 h -101.66 l 4.42,-64.69 h 116.82 c -3.73,13.44 -10.72,36.37 -19.58,64.69" /><path
     inkscape:connector-curvature="0"
     id="path1449"
     style="fill:#ffffff;fill-opacity:1;fill-rule:evenodd;stroke:none"
     d="m 4842.45,1341.9 h 101.66 c -7.96,25.43 -17.44,55.22 -27.45,86.37 h -80.12 l 5.91,-86.37" /><path
     inkscape:connector-curvature="0"
     id="path1451"
     style="fill:#ea841f;fill-opacity:1;fill-rule:evenodd;stroke:none"
     d="m 4836.54,1428.27 h 80.12 c -8.47,26.37 -17.31,53.72 -25.92,80.27 h -59.69 l 5.49,-80.27" /><path
     inkscape:connector-curvature="0"
     id="path1453"
     style="fill:#ffffff;fill-opacity:1;fill-rule:evenodd;stroke:none"
     d="m 4831.05,1508.54 h 59.69 c -10,30.83 -19.69,60.55 -28.13,86.36 h -37.47 l 5.91,-86.36" /><path
     inkscape:connector-curvature="0"
     id="path1455"
     style="fill:#ea841f;fill-opacity:1;fill-rule:evenodd;stroke:none"
     d="m 4825.14,1594.9 h 37.47 c -16.36,50.09 -28,85.43 -28,85.43 0,0 -1.81,1.94 -10.18,2.33 -2.17,-0.1 -3.89,-0.31 -5.25,-0.55 l 5.96,-87.21" /><path
     inkscape:connector-curvature="0"
     id="path1457"
     style="fill:#ee7417;fill-opacity:1;fill-rule:evenodd;stroke:none"
     d="m 5217.21,1682.66 c -8.38,-0.39 -10.17,-2.33 -10.17,-2.33 0,0 -132.07,-400.99 -132.07,-415.82 0,-13.81 284.48,-13.81 284.48,0 0,14.83 -132.06,415.82 -132.06,415.82 0,0 -1.81,1.94 -10.18,2.33" /><path
     inkscape:connector-curvature="0"
     id="path1459"
     style="fill:#f28e29;fill-opacity:1;fill-rule:evenodd;stroke:none"
     d="m 5044.13,1277.21 h 343.54 c 6.77,0 12.31,-5.55 12.31,-12.32 v -10.13 c 0,-6.78 -5.54,-12.32 -12.31,-12.32 h -343.54 c -6.78,0 -12.32,5.54 -12.32,12.32 v 10.13 c 0,6.77 5.54,12.32 12.32,12.32" /><path
     inkscape:connector-curvature="0"
     id="path1461"
     style="fill:#f1f1f1;fill-opacity:1;fill-rule:evenodd;stroke:none"
     d="m 5309.44,1428.27 h -184.46 c -10,-31.15 -19.49,-60.94 -27.45,-86.37 h 239.36 c -7.97,25.43 -17.45,55.22 -27.45,86.37" /><path
     inkscape:connector-curvature="0"
     id="path1463"
     style="fill:#f1f1f1;fill-opacity:1;fill-rule:evenodd;stroke:none"
     d="m 5150.89,1508.54 h 132.63 c -10,30.83 -19.69,60.55 -28.12,86.36 h -76.37 c -8.44,-25.81 -18.14,-55.53 -28.14,-86.36" /><path
     inkscape:connector-curvature="0"
     id="path1465"
     style="fill:#ea841f;fill-opacity:1;fill-rule:evenodd;stroke:none"
     d="m 5336.89,1341.9 h -101.66 l 4.42,-64.69 h 116.82 c -3.73,13.44 -10.71,36.37 -19.58,64.69" /><path
     inkscape:connector-curvature="0"
     id="path1467"
     style="fill:#ffffff;fill-opacity:1;fill-rule:evenodd;stroke:none"
     d="m 5235.23,1341.9 h 101.66 c -7.97,25.43 -17.45,55.22 -27.45,86.37 h -80.12 l 5.91,-86.37" /><path
     inkscape:connector-curvature="0"
     id="path1469"
     style="fill:#ea841f;fill-opacity:1;fill-rule:evenodd;stroke:none"
     d="m 5229.32,1428.27 h 80.12 c -8.47,26.37 -17.3,53.72 -25.92,80.27 h -59.69 l 5.49,-80.27" /><path
     inkscape:connector-curvature="0"
     id="path1471"
     style="fill:#ffffff;fill-opacity:1;fill-rule:evenodd;stroke:none"
     d="m 5223.83,1508.54 h 59.69 c -10,30.83 -19.69,60.55 -28.12,86.36 h -37.48 l 5.91,-86.36" /><path
     inkscape:connector-curvature="0"
     id="path1473"
     style="fill:#ea841f;fill-opacity:1;fill-rule:evenodd;stroke:none"
     d="m 5217.92,1594.9 h 37.48 c -16.37,50.09 -28.01,85.43 -28.01,85.43 0,0 -1.81,1.94 -10.18,2.33 -2.16,-0.1 -3.88,-0.31 -5.25,-0.55 l 5.96,-87.21" /><path
     inkscape:connector-curvature="0"
     id="path1475"
     style="fill:#db6642;fill-opacity:1;fill-rule:evenodd;stroke:none"
     d="m 3566.21,1934.63 c 2.16,0.25 32.46,13.38 29.52,16.66 -2.94,3.28 -7.08,2.5 -15.71,-0.09 -8.63,-2.59 -25.38,-8.03 -23.22,-9.33 2.16,-1.28 9.41,-7.24 9.41,-7.24" /><path
     inkscape:connector-curvature="0"
     id="path1477"
     style="fill:#db6642;fill-opacity:1;fill-rule:evenodd;stroke:none"
     d="m 3547.4,1943.35 c 2.08,1.78 18.47,16.13 23.64,17.52 5.18,1.38 9.33,0.25 8.55,-1.39 -0.79,-1.64 -24.69,-21.91 -25.12,-21.39 l -7.07,5.26" /><path
     inkscape:connector-curvature="0"
     id="path1479"
     style="fill:#ed6843;fill-opacity:1;fill-rule:evenodd;stroke:none"
     d="m 3427.61,2313.79 c 0,0 8.62,-29.96 7.68,-36.7 -0.93,-6.74 -15.18,-27.51 -15.18,-27.51 l -36.7,6 0.78,46.98 43.42,11.23" /><path
     inkscape:connector-curvature="0"
     id="path1481"
     style="fill:#f4a018;fill-opacity:1;fill-rule:evenodd;stroke:none"
     d="m 3264.34,2169.44 c 2.25,8.99 34.09,39.88 34.09,39.88 l 80.49,-93.8 4.49,140.06 36.7,-6 c 0,0 24.93,-214.42 -5.02,-215.92 -29.96,-1.5 -163.48,58.64 -163.48,58.64 l 12.73,77.14" /><path
     inkscape:connector-curvature="0"
     id="path1483"
     style="fill:#211916;fill-opacity:1;fill-rule:evenodd;stroke:none"
     d="m 3287.97,1270.38 c 7.9,-19.15 53.76,-14.24 49.27,-26.63 -2.24,-4.68 -62.77,-1.31 -62.77,-1.31 l -4.26,4.15 -1.45,-5.24 -21.81,0.89 c 0,0 -1.78,8.8 -0.38,14.69 1.4,5.9 2.37,17.08 2.37,17.08 l 26.56,14.08 c -0.03,0.21 10.93,-13.99 12.47,-17.71" /><path
     inkscape:connector-curvature="0"
     id="path1485"
     style="fill:#3e222a;fill-opacity:1;fill-rule:evenodd;stroke:none"
     d="m 3343.56,1854.3 -55.55,-583.91 -40.01,-4.95 c 0,0 -76.26,584.98 -67.21,583.69 9.04,-1.29 162.77,5.17 162.77,5.17" /><path
     inkscape:connector-curvature="0"
     id="path1487"
     style="fill:#211916;fill-opacity:1;fill-rule:evenodd;stroke:none"
     d="m 3219.77,1271.27 c 7.9,-19.15 53.76,-14.24 49.27,-26.62 -2.25,-4.69 -62.77,-1.32 -62.77,-1.32 l -4.25,4.15 -1.46,-5.24 -21.81,0.88 c 0,0 -1.78,8.81 -0.38,14.71 1.4,5.9 2.38,17.07 2.38,17.07 l 26.55,14.07 c -0.03,0.22 10.93,-13.98 12.47,-17.7" /><path
     inkscape:connector-curvature="0"
     id="path1489"
     style="fill:#3e2028;fill-opacity:1;fill-rule:evenodd;stroke:none"
     d="m 3312.55,1868.51 -92.78,-597.24 -40.68,-9.83 -28.01,561.85 161.47,45.22" /><path
     inkscape:connector-curvature="0"
     id="path1491"
     style="fill:#ee6e4d;fill-opacity:1;fill-rule:evenodd;stroke:none"
     d="m 3310.2,2400.09 34.12,-32.94 -17.55,-9.7 c 0,0 -6.86,-62.65 -10.74,-62.65 -3.88,0 -36.85,-10.98 -36.85,-10.98 l 15.85,-79.8 -113.29,42.98 8.03,55.93 -6.31,123 107.77,13.56 18.97,-39.4" /><path
     inkscape:connector-curvature="0"
     id="path1493"
     style="fill:#383433;fill-opacity:1;fill-rule:evenodd;stroke:none"
     d="m 3251.8,2404.02 c -7.12,-4.12 -7.12,-34.45 -12.36,-44.56 -5.23,-10.1 -40.06,-36.7 -50.92,-38.57 -10.86,-1.88 -23.78,69.65 -21.53,69.65 2.24,0 84.81,13.48 84.81,13.48" /><path
     inkscape:connector-curvature="0"
     id="path1495"
     style="fill:#f08613;fill-opacity:1;fill-rule:evenodd;stroke:none"
     d="m 3187.3,2285.71 c -2.59,-0.75 -26.45,-33.87 -29.13,-43.26 -23.68,-83.08 -12.36,-433.04 -6.28,-435.42 3,-1.18 4.45,18.91 43.92,7.49 55.4,-16.01 152.64,-30.36 152.64,-30.36 -15.81,131.15 2.29,300.04 -49.13,423.73 -3.18,7.66 -29.78,12.06 -112.02,77.82" /><path
     inkscape:connector-curvature="0"
     id="path1497"
     style="fill:#ee6e4d;fill-opacity:1;fill-rule:evenodd;stroke:none"
     d="m 3489.7,1964.23 c 2.15,0.86 14.04,0.63 14.04,0.63 l 12.71,8.56 c 0,0 37.76,13.57 37.52,8.09 -0.24,-5.47 -21.27,-16.42 -21.27,-16.42 0,0 5.47,-13.57 6.55,-14.54 0.56,-0.5 9.04,-5.51 14.38,-6.9 l 18.19,-3.24 c 0.11,-0.03 31.36,11.43 29.57,4.66 -1.79,-6.77 -30.93,-15.85 -30.93,-15.85 l -17.27,-3.74 -19.3,2.44 -36.9,12.42 -7.29,23.89" /><path
     inkscape:connector-curvature="0"
     id="path1499"
     style="fill:#f4a018;fill-opacity:1;fill-rule:evenodd;stroke:none"
     d="m 3143.93,2191.53 c 12.05,-48.16 116.36,-148.28 144.15,-167.94 27.79,-19.66 206.38,-95.46 206.38,-95.46 5.4,8.46 9.84,39.36 9.84,39.36 0,0 -165.11,98.47 -174.4,103.55 -18.5,10.14 -81.2,128.92 -121.59,176.85 -43.92,52.1 -76.42,-8.19 -64.38,-56.36" /><path
     inkscape:connector-curvature="0"
     id="path1501"
     style="fill:#f8cd07;fill-opacity:1;fill-rule:evenodd;stroke:none"
     d="m 3231.79,2492.8 c 42.47,5.39 82.22,-28.88 91.88,-77.69 l -161.4,-20.51 c -2.86,49.67 27.05,92.8 69.52,98.2" /><path
     inkscape:connector-curvature="0"
     id="path1503"
     style="fill:#f8cd07;fill-opacity:1;fill-rule:evenodd;stroke:none"
     d="m 3285.1,2426.98 38.57,-11.87 46.35,-10.69 c 0,0 -211.57,-24.9 -211.95,-23.4 -0.37,1.5 -2.71,8.14 -0.28,10.77 2.44,2.61 4.48,2.81 4.48,2.81 l 122.83,32.38" /><path
     inkscape:connector-curvature="0"
     id="path1505"
     style="fill:#e47f17;fill-opacity:1;fill-rule:evenodd;stroke:none"
     d="m 3250.51,2250.48 27.34,3 23.13,-49.62 -47.66,29.39 -2.81,17.23" /><path
     inkscape:connector-curvature="0"
     id="path1507"
     style="fill:#f18f12;fill-opacity:1;fill-rule:evenodd;stroke:none"
     d="m 3277.85,2253.48 c -1.13,-2.25 -20.23,-32.21 -20.23,-32.21 l -74.06,57.87 7.53,19.52 86.76,-45.18" /><path
     inkscape:connector-curvature="0"
     id="path1509"
     style="fill:#ee6e4d;fill-opacity:1;fill-rule:evenodd;stroke:none"
     d="m 3222.64,2341.05 c 10.22,0 18.55,9.1 18.55,20.23 0,11.14 -8.33,20.22 -18.55,20.22 -10.2,0 -18.53,-9.08 -18.53,-20.22 0,-11.13 8.33,-20.23 18.53,-20.23" /><path
     inkscape:connector-curvature="0"
     id="path1511"
     style="fill:#ed6843;fill-opacity:1;fill-rule:evenodd;stroke:none"
     d="m 3326.77,2357.45 17.55,9.7 -31.06,-1.2 z" /><path
     inkscape:connector-curvature="0"
     id="path1513"
     style="fill:#ed6843;fill-opacity:1;fill-rule:evenodd;stroke:none"
     d="m 3279.18,2283.82 c 0,0 32.97,10.98 36.85,10.98 l 0.13,0.02 -65.62,16.81 -29.31,29.48 c -11.78,-9.53 -25.9,-18.81 -32.38,-20.15 l 0.92,-18.03 -1.75,-12.23 3.07,7.96 86.76,-45.18 12.81,-27.49 -11.48,57.83" /><path
     inkscape:connector-curvature="0"
     id="path1515"
     style="fill:#ec5f3a;fill-opacity:1;fill-rule:evenodd;stroke:none"
     d="m 3230.13,2373.79 c -2.81,2.25 -10.67,3.75 -15.63,-0.47 -4.97,-4.21 -3.75,-14.13 -0.89,-20.6 2.85,-6.45 10.8,-8.84 15.39,-6.13 4.59,2.72 2.62,4.87 1.41,9.65 -1.22,4.77 4.02,1.49 5.14,7.3 1.13,5.81 -5.42,10.25 -5.42,10.25" /><path
     inkscape:connector-curvature="0"
     id="path1517"
     style="fill:#414a53;fill-opacity:1;fill-rule:evenodd;stroke:none"
     d="m 3428.55,2329.14 c -2.99,-3.75 -10.23,-18.89 -5.87,-39.4 4.38,-20.51 11.5,-29.88 6.25,-33.62 -5.24,-3.75 -20.97,-3.08 -25.09,3.74 -4.13,6.83 -11.55,37.14 -11.58,44.79 -0.03,7.64 0.34,17.75 0.34,17.75 l 35.95,6.74" /><path
     inkscape:connector-curvature="0"
     id="path1519"
     style="fill:#ee6e4d;fill-opacity:1;fill-rule:evenodd;stroke:none"
     d="m 3404.26,2306.97 c 1.73,-6.12 36.51,-2.69 36.35,4.29 -0.16,6.98 -4.13,9.68 -7.15,9.84 -7.47,0.39 -30.93,-7.99 -29.2,-14.13" /><path
     inkscape:connector-curvature="0"
     id="path1521"
     style="fill:#ee6e4d;fill-opacity:1;fill-rule:evenodd;stroke:none"
     d="m 3408.5,2294.57 c 0.99,-6.29 35.92,-7.02 36.59,-0.07 0.68,6.96 -2.94,10.1 -5.91,10.62 -7.38,1.28 -31.66,-4.26 -30.68,-10.55" /><path
     inkscape:connector-curvature="0"
     id="path1523"
     style="fill:#ee6e4d;fill-opacity:1;fill-rule:evenodd;stroke:none"
     d="m 3410.78,2273.96 c 0.1,-5.75 31.23,-10.75 32.69,-4.61 1.47,6.13 -1.37,9.39 -3.97,10.22 -6.43,2.06 -28.82,0.14 -28.72,-5.61" /><path
     inkscape:connector-curvature="0"
     id="path1525"
     style="fill:#ee6e4d;fill-opacity:1;fill-rule:evenodd;stroke:none"
     d="m 3411.77,2282.45 c 0.89,-5.68 32.41,-6.34 33.02,-0.07 0.61,6.28 -2.66,9.11 -5.34,9.58 -6.66,1.16 -28.58,-3.84 -27.68,-9.51" /><path
     inkscape:connector-curvature="0"
     id="path1527"
     style="fill:#ee6e4d;fill-opacity:1;fill-rule:evenodd;stroke:none"
     d="m 3379.34,2304.6 c 0.64,1.43 12.7,11.1 13.97,10.95 1.27,-0.16 36.19,-9.2 32.85,-13.65 -3.33,-4.44 -26.51,-4.28 -26.51,-4.28 0,0 9.06,-10.79 8.42,-19.21 -0.63,-8.41 -13.2,-17.82 -21.21,-12.48 -8,5.34 -7.52,38.67 -7.52,38.67" /><path
     inkscape:connector-curvature="0"
     id="path1529"
     style="fill:#dddedc;fill-opacity:1;fill-rule:evenodd;stroke:none"
     d="m 3372.94,2354.06 c 2.33,1.33 190.82,47.42 232.36,57.57 v -140.39 l -231.23,47.99 -1.13,34.83" /><path
     inkscape:connector-curvature="0"
     id="path1531"
     style="fill:#f8cd07;fill-opacity:1;fill-rule:evenodd;stroke:none"
     d="m 3372.94,2354.06 c 1.04,0.59 38.91,10.04 84.3,21.24 -2.63,-1.26 -4.72,-17.18 -4.72,-36.66 0,-19.6 2.11,-35.61 4.77,-36.69 l -84.35,17.49 v 34.62" /><path
     inkscape:connector-curvature="0"
     id="path1533"
     style="fill:#b2b3b2;fill-opacity:1;fill-rule:evenodd;stroke:none"
     d="m 3605.3,2271.24 c 8.74,0 15.87,31.53 15.87,70.2 0,38.66 -7.13,70.19 -15.87,70.19 -8.74,0 -15.87,-31.53 -15.87,-70.19 0,-38.67 7.13,-70.2 15.87,-70.2" /><path
     inkscape:connector-curvature="0"
     id="path1535"
     style="fill:#f8cd07;fill-opacity:1;fill-rule:evenodd;stroke:none"
     d="m 3372.94,2319.44 c 2.79,0 5.05,7.78 5.05,17.31 0,9.54 -2.26,17.31 -5.05,17.31 -2.79,0 -5.06,-7.77 -5.06,-17.31 0,-9.53 2.27,-17.31 5.06,-17.31" /><path
     inkscape:connector-curvature="0"
     id="path1537"
     style="fill:#383433;fill-opacity:1;fill-rule:evenodd;stroke:none"
     d="m 3242.01,2384.16 c 0,0 18.98,-35.21 26.4,-40.39 7.43,-5.18 54.62,5.08 57.18,3.49 2.55,-1.59 -1.41,-48.2 -6.6,-52.51 -5.18,-4.32 -69.91,8.97 -72.32,13.11 -2.42,4.15 -13.81,21.41 -12.95,24.35 0.87,2.93 7.59,39.69 7.59,39.69 l -4.31,10.37 5.01,1.89" /></g><text
   xml:space="preserve"
   style="font-style:normal;font-variant:normal;font-weight:normal;font-stretch:normal;font-size:119.83441925px;line-height:1;font-family:Ubuntu;-inkscape-font-specification:Ubuntu;letter-spacing:0px;word-spacing:0px;fill:#000000;fill-opacity:1;stroke:none;stroke-width:7.4896512"
   x="4556.2632"
   y="-992.25983"
   id="text1585"
   transform="scale(1,-1)"><tspan
     sodipodi:role="line"
     id="tspan1583"
     x="4556.2632"
     y="-992.25983"
     style="font-weight:bold;line-height:1;text-align:center;text-anchor:middle;stroke-width:7.4896512">Website Is</tspan><tspan
     sodipodi:role="line"
     x="4556.2632"
     y="-824.04272"
     style="font-weight:bold;font-size:179.75163269px;line-height:1;text-align:center;text-anchor:middle;stroke-width:7.4896512"
     id="tspan1587">Under Construction</tspan><tspan
     sodipodi:role="line"
     x="4556.2632"
     y="-692.67377"
     style="font-weight:bold;font-size:99.8620224px;line-height:1;text-align:center;text-anchor:middle;stroke-width:7.4896512"
     id="tspan1589">Thanks For Your Patience</tspan></text>

</g></g></svg>